<svg xmlns="http://www.w3.org/2000/svg" width="10" height="10" shape-rendering="crispEdges">
<rect x="1" y="1" width="1" height="1" fill="#1c1c1c" />
<rect x="2" y="1" width="1" height="1" fill="#0c0c0c" />
<rect x="3" y="1" width="1" height="1" fill="#030303" />
<rect x="4" y="1" width="1" height="1" fill="#0c0c0c" />
<rect x="5" y="1" width="1" height="1" fill="#030303" />
<rect x="6" y="1" width="1" height="1" fill="#0c0c0c" />
<rect x="7" y="1" width="1" height="1" fill="#030303" />
<rect x="8" y="1" width="1" height="1" fill="#0c0c0c" />
<rect x="9" y="1" width="1" height="1" fill="#0c0c0c" />
<rect x="1" y="2" width="1" height="1" fill="#1c1c1c" />
<rect x="2" y="2" width="1" height="1" fill="#00c72f" />
<rect x="3" y="2" width="1" height="1" fill="#030303" />
<rect x="4" y="2" width="1" height="1" fill="#00c72f" />
<rect x="5" y="2" width="1" height="1" fill="#030303" />
<rect x="6" y="2" width="1" height="1" fill="#009a39" />
<rect x="7" y="2" width="1" height="1" fill="#030303" />
<rect x="8" y="2" width="1" height="1" fill="#00714a" />
<rect x="9" y="2" width="1" height="1" fill="#030303" />
<rect x="1" y="3" width="1" height="1" fill="#1c1c1c" />
<rect x="2" y="3" width="1" height="1" fill="#0c0c0c" />
<rect x="3" y="3" width="1" height="1" fill="#030303" />
<rect x="4" y="3" width="1" height="1" fill="#0c0c0c" />
<rect x="5" y="3" width="1" height="1" fill="#030303" />
<rect x="6" y="3" width="1" height="1" fill="#0c0c0c" />
<rect x="7" y="3" width="1" height="1" fill="#030303" />
<rect x="8" y="3" width="1" height="1" fill="#0c0c0c" />
<rect x="9" y="3" width="1" height="1" fill="#0c0c0c" />
<rect x="1" y="4" width="1" height="1" fill="#1c1c1c" />
<rect x="2" y="4" width="1" height="1" fill="#00cffd" />
<rect x="3" y="4" width="1" height="1" fill="#030303" />
<rect x="4" y="4" width="1" height="1" fill="#00cffd" />
<rect x="5" y="4" width="1" height="1" fill="#030303" />
<rect x="6" y="4" width="1" height="1" fill="#009ae2" />
<rect x="7" y="4" width="1" height="1" fill="#030303" />
<rect x="8" y="4" width="1" height="1" fill="#0069b2" />
<rect x="9" y="4" width="1" height="1" fill="#030303" />
<rect x="1" y="5" width="1" height="1" fill="#1c1c1c" />
<rect x="2" y="5" width="1" height="1" fill="#0c0c0c" />
<rect x="3" y="5" width="1" height="1" fill="#030303" />
<rect x="4" y="5" width="1" height="1" fill="#0c0c0c" />
<rect x="5" y="5" width="1" height="1" fill="#030303" />
<rect x="6" y="5" width="1" height="1" fill="#0c0c0c" />
<rect x="7" y="5" width="1" height="1" fill="#030303" />
<rect x="8" y="5" width="1" height="1" fill="#0c0c0c" />
<rect x="9" y="5" width="1" height="1" fill="#0c0c0c" />
<rect x="1" y="6" width="1" height="1" fill="#1c1c1c" />
<rect x="2" y="6" width="1" height="1" fill="#ff1929" />
<rect x="3" y="6" width="1" height="1" fill="#030303" />
<rect x="4" y="6" width="1" height="1" fill="#bb1123" />
<rect x="5" y="6" width="1" height="1" fill="#030303" />
<rect x="6" y="6" width="1" height="1" fill="#00f1ff" />
<rect x="7" y="6" width="1" height="1" fill="#030303" />
<rect x="8" y="6" width="1" height="1" fill="#00cffd" />
<rect x="9" y="6" width="1" height="1" fill="#030303" />
<rect x="1" y="7" width="1" height="1" fill="#030303" />
<rect x="2" y="7" width="1" height="1" fill="#030303" />
<rect x="3" y="7" width="1" height="1" fill="#0c0c0c" />
<rect x="4" y="7" width="1" height="1" fill="#030303" />
<rect x="5" y="7" width="1" height="1" fill="#0c0c0c" />
<rect x="6" y="7" width="1" height="1" fill="#030303" />
<rect x="7" y="7" width="1" height="1" fill="#0c0c0c" />
<rect x="8" y="7" width="1" height="1" fill="#030303" />
<rect x="9" y="7" width="1" height="1" fill="#000000" />
</svg>