<svg xmlns="http://www.w3.org/2000/svg" width="10" height="10" shape-rendering="crispEdges">
<rect x="3" y="1" width="1" height="1" fill="#180c0c" />
<rect x="4" y="1" width="1" height="1" fill="#180c0c" />
<rect x="5" y="1" width="1" height="1" fill="#180c0c" />
<rect x="6" y="1" width="1" height="1" fill="#190c0c" />
<rect x="2" y="2" width="1" height="1" fill="#180c0c" />
<rect x="3" y="2" width="1" height="1" fill="#504948" />
<rect x="4" y="2" width="1" height="1" fill="#504947" />
<rect x="5" y="2" width="1" height="1" fill="#2d2d2d" />
<rect x="6" y="2" width="1" height="1" fill="#726b6a" />
<rect x="7" y="2" width="1" height="1" fill="#180c0c" />
<rect x="2" y="3" width="1" height="1" fill="#180c0c" />
<rect x="3" y="3" width="1" height="1" fill="#726b6a" />
<rect x="4" y="3" width="1" height="1" fill="#2d2d2d" />
<rect x="5" y="3" width="1" height="1" fill="#161616" />
<rect x="6" y="3" width="1" height="1" fill="#736b6a" />
<rect x="7" y="3" width="1" height="1" fill="#4f4847" />
<rect x="8" y="3" width="1" height="1" fill="#190c0c" />
<rect x="1" y="4" width="1" height="1" fill="#180c0c" />
<rect x="2" y="4" width="1" height="1" fill="#726b6a" />
<rect x="3" y="4" width="1" height="1" fill="#736b6a" />
<rect x="4" y="4" width="1" height="1" fill="#2d2d2d" />
<rect x="5" y="4" width="1" height="1" fill="#2d2d2d" />
<rect x="6" y="4" width="1" height="1" fill="#504847" />
<rect x="7" y="4" width="1" height="1" fill="#2d2d2d" />
<rect x="8" y="4" width="1" height="1" fill="#736c6b" />
<rect x="9" y="4" width="1" height="1" fill="#180c0c" />
<rect x="1" y="5" width="1" height="1" fill="#190d0d" />
<rect x="2" y="5" width="1" height="1" fill="#2d2d2d" />
<rect x="3" y="5" width="1" height="1" fill="#504948" />
<rect x="4" y="5" width="1" height="1" fill="#504847" />
<rect x="5" y="5" width="1" height="1" fill="#504947" />
<rect x="6" y="5" width="1" height="1" fill="#2d2d2d" />
<rect x="7" y="5" width="1" height="1" fill="#161616" />
<rect x="8" y="5" width="1" height="1" fill="#504948" />
<rect x="9" y="5" width="1" height="1" fill="#180c0c" />
<rect x="1" y="6" width="1" height="1" fill="#190d0d" />
<rect x="2" y="6" width="1" height="1" fill="#504847" />
<rect x="3" y="6" width="1" height="1" fill="#2d2d2d" />
<rect x="4" y="6" width="1" height="1" fill="#2e2e2e" />
<rect x="5" y="6" width="1" height="1" fill="#2e2e2e" />
<rect x="6" y="6" width="1" height="1" fill="#161616" />
<rect x="7" y="6" width="1" height="1" fill="#151515" />
<rect x="8" y="6" width="1" height="1" fill="#180c0c" />
<rect x="2" y="7" width="1" height="1" fill="#190c0c" />
<rect x="3" y="7" width="1" height="1" fill="#504948" />
<rect x="4" y="7" width="1" height="1" fill="#2d2d2d" />
<rect x="5" y="7" width="1" height="1" fill="#151515" />
<rect x="6" y="7" width="1" height="1" fill="#151515" />
<rect x="7" y="7" width="1" height="1" fill="#161616" />
<rect x="8" y="7" width="1" height="1" fill="#190c0c" />
<rect x="3" y="8" width="1" height="1" fill="#180c0c" />
<rect x="4" y="8" width="1" height="1" fill="#190c0c" />
<rect x="5" y="8" width="1" height="1" fill="#180c0c" />
<rect x="6" y="8" width="1" height="1" fill="#180c0c" />
<rect x="7" y="8" width="1" height="1" fill="#190d0d" />
</svg>