<svg xmlns="http://www.w3.org/2000/svg" width="10" height="10" shape-rendering="crispEdges">
<rect x="4" y="1" width="1" height="1" fill="#00f1ff" />
<rect x="5" y="1" width="1" height="1" fill="#00cffd" />
<rect x="3" y="2" width="1" height="1" fill="#00f1ff" />
<rect x="6" y="2" width="1" height="1" fill="#00cffd" />
<rect x="3" y="3" width="1" height="1" fill="#00cffd" />
<rect x="6" y="3" width="1" height="1" fill="#00cffd" />
<rect x="1" y="4" width="1" height="1" fill="#00f1ff" />
<rect x="2" y="4" width="1" height="1" fill="#00cffd" />
<rect x="7" y="4" width="1" height="1" fill="#009ae2" />
<rect x="8" y="4" width="1" height="1" fill="#009ae2" />
<rect x="1" y="5" width="1" height="1" fill="#00cffd" />
<rect x="8" y="5" width="1" height="1" fill="#0069b2" />
<rect x="2" y="6" width="1" height="1" fill="#00cffd" />
<rect x="7" y="6" width="1" height="1" fill="#009ae2" />
<rect x="2" y="7" width="1" height="1" fill="#00cffd" />
<rect x="4" y="7" width="1" height="1" fill="#00cffd" />
<rect x="5" y="7" width="1" height="1" fill="#009ae2" />
<rect x="7" y="7" width="1" height="1" fill="#009ae2" />
<rect x="2" y="8" width="1" height="1" fill="#00cffd" />
<rect x="3" y="8" width="1" height="1" fill="#009ae2" />
<rect x="6" y="8" width="1" height="1" fill="#009ae2" />
<rect x="7" y="8" width="1" height="1" fill="#0069b2" />
</svg>