<svg xmlns="http://www.w3.org/2000/svg" width="10" height="10" shape-rendering="crispEdges">
<rect x="3" y="0" width="1" height="1" fill="#aea4bf" />
<rect x="4" y="0" width="1" height="1" fill="#afa5c0" />
<rect x="5" y="0" width="1" height="1" fill="#aea4bf" />
<rect x="6" y="0" width="1" height="1" fill="#aea5c0" />
<rect x="2" y="1" width="1" height="1" fill="#62412e" />
<rect x="3" y="1" width="1" height="1" fill="#63412f" />
<rect x="4" y="1" width="1" height="1" fill="#fcfcfc" />
<rect x="5" y="1" width="1" height="1" fill="#fcfcfc" />
<rect x="6" y="1" width="1" height="1" fill="#63412f" />
<rect x="7" y="1" width="1" height="1" fill="#63412f" />
<rect x="1" y="2" width="1" height="1" fill="#aea4bf" />
<rect x="2" y="2" width="1" height="1" fill="#eaecf0" />
<rect x="3" y="2" width="1" height="1" fill="#ffffff" />
<rect x="4" y="2" width="1" height="1" fill="#ffffff" />
<rect x="5" y="2" width="1" height="1" fill="#ffffff" />
<rect x="6" y="2" width="1" height="1" fill="#fcfcfc" />
<rect x="7" y="2" width="1" height="1" fill="#eaedf1" />
<rect x="8" y="2" width="1" height="1" fill="#aea4bf" />
<rect x="0" y="3" width="1" height="1" fill="#aea4bf" />
<rect x="1" y="3" width="1" height="1" fill="#eaedf1" />
<rect x="2" y="3" width="1" height="1" fill="#fcfcfc" />
<rect x="3" y="3" width="1" height="1" fill="#63412f" />
<rect x="4" y="3" width="1" height="1" fill="#ffffff" />
<rect x="5" y="3" width="1" height="1" fill="#ffffff" />
<rect x="6" y="3" width="1" height="1" fill="#792f08" />
<rect x="7" y="3" width="1" height="1" fill="#fcfcfc" />
<rect x="8" y="3" width="1" height="1" fill="#eaecf0" />
<rect x="9" y="3" width="1" height="1" fill="#aea5c0" />
<rect x="0" y="4" width="1" height="1" fill="#aea4bf" />
<rect x="1" y="4" width="1" height="1" fill="#fdfdfd" />
<rect x="2" y="4" width="1" height="1" fill="#fcfcfc" />
<rect x="3" y="4" width="1" height="1" fill="#ffffff" />
<rect x="4" y="4" width="1" height="1" fill="#ffb743" />
<rect x="5" y="4" width="1" height="1" fill="#ffffff" />
<rect x="6" y="4" width="1" height="1" fill="#ffffff" />
<rect x="7" y="4" width="1" height="1" fill="#ffffff" />
<rect x="8" y="4" width="1" height="1" fill="#eaecf0" />
<rect x="9" y="4" width="1" height="1" fill="#aea4bf" />
<rect x="0" y="5" width="1" height="1" fill="#aea4bf" />
<rect x="1" y="5" width="1" height="1" fill="#fcfcfc" />
<rect x="2" y="5" width="1" height="1" fill="#63412f" />
<rect x="3" y="5" width="1" height="1" fill="#fcfcfc" />
<rect x="4" y="5" width="1" height="1" fill="#ffb742" />
<rect x="5" y="5" width="1" height="1" fill="#fcfcfc" />
<rect x="6" y="5" width="1" height="1" fill="#63412f" />
<rect x="7" y="5" width="1" height="1" fill="#fdfdfd" />
<rect x="8" y="5" width="1" height="1" fill="#eaedf1" />
<rect x="9" y="5" width="1" height="1" fill="#5f6078" />
<rect x="0" y="6" width="1" height="1" fill="#aea5c0" />
<rect x="1" y="6" width="1" height="1" fill="#eaedf1" />
<rect x="2" y="6" width="1" height="1" fill="#fcfcfc" />
<rect x="3" y="6" width="1" height="1" fill="#63412f" />
<rect x="4" y="6" width="1" height="1" fill="#63412f" />
<rect x="5" y="6" width="1" height="1" fill="#63412f" />
<rect x="6" y="6" width="1" height="1" fill="#fcfcfc" />
<rect x="7" y="6" width="1" height="1" fill="#fcfcfc" />
<rect x="8" y="6" width="1" height="1" fill="#eaedf1" />
<rect x="9" y="6" width="1" height="1" fill="#5e6077" />
<rect x="1" y="7" width="1" height="1" fill="#aea5c0" />
<rect x="2" y="7" width="1" height="1" fill="#eaedf1" />
<rect x="3" y="7" width="1" height="1" fill="#eaecf0" />
<rect x="4" y="7" width="1" height="1" fill="#fcfcfc" />
<rect x="5" y="7" width="1" height="1" fill="#fcfcfc" />
<rect x="6" y="7" width="1" height="1" fill="#fcfcfc" />
<rect x="7" y="7" width="1" height="1" fill="#eaedf1" />
<rect x="8" y="7" width="1" height="1" fill="#5e6077" />
<rect x="2" y="8" width="1" height="1" fill="#5e6077" />
<rect x="3" y="8" width="1" height="1" fill="#eaedf1" />
<rect x="4" y="8" width="1" height="1" fill="#eaecf1" />
<rect x="5" y="8" width="1" height="1" fill="#eaedf1" />
<rect x="6" y="8" width="1" height="1" fill="#eaecf0" />
<rect x="7" y="8" width="1" height="1" fill="#5f6078" />
<rect x="3" y="9" width="1" height="1" fill="#5e6077" />
<rect x="4" y="9" width="1" height="1" fill="#5f6078" />
<rect x="5" y="9" width="1" height="1" fill="#5f6078" />
<rect x="6" y="9" width="1" height="1" fill="#5e6077" />
</svg>