<svg xmlns="http://www.w3.org/2000/svg" width="10" height="10" shape-rendering="crispEdges">
<rect x="3" y="0" width="1" height="1" fill="#ff807d" />
<rect x="4" y="0" width="1" height="1" fill="#ff807d" />
<rect x="5" y="0" width="1" height="1" fill="#ff807c" />
<rect x="2" y="1" width="1" height="1" fill="#ff807d" />
<rect x="3" y="1" width="1" height="1" fill="#ffffff" />
<rect x="4" y="1" width="1" height="1" fill="#fff7e2" />
<rect x="5" y="1" width="1" height="1" fill="#fff7e2" />
<rect x="6" y="1" width="1" height="1" fill="#ff807d" />
<rect x="1" y="2" width="1" height="1" fill="#ff807c" />
<rect x="2" y="2" width="1" height="1" fill="#ffffff" />
<rect x="3" y="2" width="1" height="1" fill="#fff8e2" />
<rect x="4" y="2" width="1" height="1" fill="#ffc5b9" />
<rect x="5" y="2" width="1" height="1" fill="#ffc4b9" />
<rect x="6" y="2" width="1" height="1" fill="#fff7e2" />
<rect x="7" y="2" width="1" height="1" fill="#ff807c" />
<rect x="1" y="3" width="1" height="1" fill="#ff807d" />
<rect x="2" y="3" width="1" height="1" fill="#ffc5b9" />
<rect x="3" y="3" width="1" height="1" fill="#ffc5b9" />
<rect x="4" y="3" width="1" height="1" fill="#ffc4b9" />
<rect x="5" y="3" width="1" height="1" fill="#fff7e2" />
<rect x="6" y="3" width="1" height="1" fill="#ffc5b9" />
<rect x="7" y="3" width="1" height="1" fill="#ff807d" />
<rect x="2" y="4" width="1" height="1" fill="#df7b1b" />
<rect x="3" y="4" width="1" height="1" fill="#ff807d" />
<rect x="4" y="4" width="1" height="1" fill="#ff807d" />
<rect x="5" y="4" width="1" height="1" fill="#ff807d" />
<rect x="6" y="4" width="1" height="1" fill="#df7b1b" />
<rect x="2" y="5" width="1" height="1" fill="#df7a1b" />
<rect x="3" y="5" width="1" height="1" fill="#ffd562" />
<rect x="4" y="5" width="1" height="1" fill="#ffd562" />
<rect x="5" y="5" width="1" height="1" fill="#f0b140" />
<rect x="6" y="5" width="1" height="1" fill="#df7b1c" />
<rect x="2" y="6" width="1" height="1" fill="#df7b1b" />
<rect x="3" y="6" width="1" height="1" fill="#ffd562" />
<rect x="4" y="6" width="1" height="1" fill="#f0b13f" />
<rect x="5" y="6" width="1" height="1" fill="#efb03f" />
<rect x="6" y="6" width="1" height="1" fill="#e07b1c" />
<rect x="3" y="7" width="1" height="1" fill="#e07b1c" />
<rect x="4" y="7" width="1" height="1" fill="#ffd562" />
<rect x="5" y="7" width="1" height="1" fill="#e07b1c" />
<rect x="3" y="8" width="1" height="1" fill="#e07b1c" />
<rect x="4" y="8" width="1" height="1" fill="#f0b13f" />
<rect x="5" y="8" width="1" height="1" fill="#df7b1b" />
<rect x="4" y="9" width="1" height="1" fill="#df7b1c" />
</svg>