<svg xmlns="http://www.w3.org/2000/svg" width="10" height="10" shape-rendering="crispEdges">
<rect x="3" y="0" width="1" height="1" fill="#ac9089" />
<rect x="4" y="0" width="1" height="1" fill="#cbbbb4" />
<rect x="5" y="0" width="1" height="1" fill="#cbbbb4" />
<rect x="6" y="0" width="1" height="1" fill="#cbbab3" />
<rect x="2" y="1" width="1" height="1" fill="#ad9089" />
<rect x="3" y="1" width="1" height="1" fill="#eadfd7" />
<rect x="4" y="1" width="1" height="1" fill="#ffffeb" />
<rect x="5" y="1" width="1" height="1" fill="#ffffff" />
<rect x="6" y="1" width="1" height="1" fill="#ffffff" />
<rect x="7" y="1" width="1" height="1" fill="#cabab3" />
<rect x="2" y="2" width="1" height="1" fill="#844a16" />
<rect x="3" y="2" width="1" height="1" fill="#bd7c44" />
<rect x="4" y="2" width="1" height="1" fill="#ebe0d8" />
<rect x="5" y="2" width="1" height="1" fill="#ffffea" />
<rect x="6" y="2" width="1" height="1" fill="#ffffff" />
<rect x="7" y="2" width="1" height="1" fill="#cbbab3" />
<rect x="2" y="3" width="1" height="1" fill="#844916" />
<rect x="3" y="3" width="1" height="1" fill="#dc8f4c" />
<rect x="4" y="3" width="1" height="1" fill="#dc8f4c" />
<rect x="5" y="3" width="1" height="1" fill="#eae0d7" />
<rect x="6" y="3" width="1" height="1" fill="#dc8f4b" />
<rect x="7" y="3" width="1" height="1" fill="#844916" />
<rect x="2" y="4" width="1" height="1" fill="#844a16" />
<rect x="3" y="4" width="1" height="1" fill="#dc8f4c" />
<rect x="4" y="4" width="1" height="1" fill="#dc8f4b" />
<rect x="5" y="4" width="1" height="1" fill="#dc8f4c" />
<rect x="6" y="4" width="1" height="1" fill="#dc8f4b" />
<rect x="7" y="4" width="1" height="1" fill="#844a16" />
<rect x="2" y="5" width="1" height="1" fill="#834915" />
<rect x="3" y="5" width="1" height="1" fill="#bd7c44" />
<rect x="4" y="5" width="1" height="1" fill="#dc8f4c" />
<rect x="5" y="5" width="1" height="1" fill="#dc8f4c" />
<rect x="6" y="5" width="1" height="1" fill="#bd7c44" />
<rect x="7" y="5" width="1" height="1" fill="#844a16" />
<rect x="2" y="6" width="1" height="1" fill="#844a16" />
<rect x="3" y="6" width="1" height="1" fill="#bd7c44" />
<rect x="4" y="6" width="1" height="1" fill="#dc8f4c" />
<rect x="5" y="6" width="1" height="1" fill="#bd7c44" />
<rect x="6" y="6" width="1" height="1" fill="#bd7c44" />
<rect x="7" y="6" width="1" height="1" fill="#844916" />
<rect x="3" y="7" width="1" height="1" fill="#844916" />
<rect x="4" y="7" width="1" height="1" fill="#844a16" />
<rect x="5" y="7" width="1" height="1" fill="#844a16" />
<rect x="6" y="7" width="1" height="1" fill="#844a16" />
<rect x="4" y="8" width="1" height="1" fill="#f4851f" />
<rect x="5" y="8" width="1" height="1" fill="#924d0e" />
<rect x="4" y="9" width="1" height="1" fill="#a85a11" />
<rect x="5" y="9" width="1" height="1" fill="#924c0d" />
</svg>