<svg xmlns="http://www.w3.org/2000/svg" width="10" height="10" shape-rendering="crispEdges">
<rect x="2" y="0" width="1" height="1" fill="#ff4385" />
<rect x="5" y="0" width="1" height="1" fill="#e40b56" />
<rect x="6" y="0" width="1" height="1" fill="#ff4385" />
<rect x="7" y="0" width="1" height="1" fill="#ff4385" />
<rect x="1" y="1" width="1" height="1" fill="#ff4385" />
<rect x="3" y="1" width="1" height="1" fill="#ff4385" />
<rect x="4" y="1" width="1" height="1" fill="#e40b56" />
<rect x="7" y="1" width="1" height="1" fill="#ff4385" />
<rect x="0" y="2" width="1" height="1" fill="#ff4385" />
<rect x="1" y="2" width="1" height="1" fill="#ff4385" />
<rect x="2" y="2" width="1" height="1" fill="#af85b2" />
<rect x="3" y="2" width="1" height="1" fill="#ae84b1" />
<rect x="4" y="2" width="1" height="1" fill="#a00037" />
<rect x="5" y="2" width="1" height="1" fill="#a00037" />
<rect x="6" y="2" width="1" height="1" fill="#e40b56" />
<rect x="7" y="2" width="1" height="1" fill="#ae84b1" />
<rect x="0" y="3" width="1" height="1" fill="#ae84b1" />
<rect x="1" y="3" width="1" height="1" fill="#ffffff" />
<rect x="2" y="3" width="1" height="1" fill="#ff4385" />
<rect x="3" y="3" width="1" height="1" fill="#e40b56" />
<rect x="4" y="3" width="1" height="1" fill="#a00037" />
<rect x="5" y="3" width="1" height="1" fill="#ffffff" />
<rect x="6" y="3" width="1" height="1" fill="#ffffff" />
<rect x="7" y="3" width="1" height="1" fill="#ffffff" />
<rect x="8" y="3" width="1" height="1" fill="#ae84b1" />
<rect x="0" y="4" width="1" height="1" fill="#ae84b1" />
<rect x="1" y="4" width="1" height="1" fill="#f4ebfa" />
<rect x="2" y="4" width="1" height="1" fill="#f5ebfa" />
<rect x="3" y="4" width="1" height="1" fill="#ffffff" />
<rect x="4" y="4" width="1" height="1" fill="#ffffff" />
<rect x="5" y="4" width="1" height="1" fill="#b80032" />
<rect x="6" y="4" width="1" height="1" fill="#f4ebfa" />
<rect x="7" y="4" width="1" height="1" fill="#f4ebfa" />
<rect x="8" y="4" width="1" height="1" fill="#f4ebfa" />
<rect x="9" y="4" width="1" height="1" fill="#ae84b1" />
<rect x="0" y="5" width="1" height="1" fill="#6e3575" />
<rect x="1" y="5" width="1" height="1" fill="#decbe9" />
<rect x="2" y="5" width="1" height="1" fill="#ddcae9" />
<rect x="3" y="5" width="1" height="1" fill="#decbe9" />
<rect x="4" y="5" width="1" height="1" fill="#b199c0" />
<rect x="5" y="5" width="1" height="1" fill="#b198bf" />
<rect x="6" y="5" width="1" height="1" fill="#a00037" />
<rect x="7" y="5" width="1" height="1" fill="#b198c0" />
<rect x="8" y="5" width="1" height="1" fill="#b198c0" />
<rect x="9" y="5" width="1" height="1" fill="#6f3576" />
<rect x="0" y="6" width="1" height="1" fill="#a00038" />
<rect x="1" y="6" width="1" height="1" fill="#e30a55" />
<rect x="2" y="6" width="1" height="1" fill="#ff4485" />
<rect x="3" y="6" width="1" height="1" fill="#ff4385" />
<rect x="4" y="6" width="1" height="1" fill="#ff4385" />
<rect x="5" y="6" width="1" height="1" fill="#e40b56" />
<rect x="6" y="6" width="1" height="1" fill="#a00037" />
<rect x="7" y="6" width="1" height="1" fill="#e40b56" />
<rect x="8" y="6" width="1" height="1" fill="#ff4385" />
<rect x="9" y="6" width="1" height="1" fill="#a00038" />
<rect x="1" y="7" width="1" height="1" fill="#6e3575" />
<rect x="2" y="7" width="1" height="1" fill="#b198c0" />
<rect x="3" y="7" width="1" height="1" fill="#ddcae9" />
<rect x="4" y="7" width="1" height="1" fill="#ddcae9" />
<rect x="5" y="7" width="1" height="1" fill="#ddcae9" />
<rect x="6" y="7" width="1" height="1" fill="#e40b56" />
<rect x="7" y="7" width="1" height="1" fill="#ddcae9" />
<rect x="8" y="7" width="1" height="1" fill="#b198c0" />
<rect x="9" y="7" width="1" height="1" fill="#6e3575" />
<rect x="2" y="8" width="1" height="1" fill="#6e3576" />
<rect x="3" y="8" width="1" height="1" fill="#6e3576" />
<rect x="4" y="8" width="1" height="1" fill="#6e3576" />
<rect x="5" y="8" width="1" height="1" fill="#6e3576" />
<rect x="6" y="8" width="1" height="1" fill="#a00037" />
<rect x="7" y="8" width="1" height="1" fill="#6e3576" />
<rect x="8" y="8" width="1" height="1" fill="#6f3576" />
<rect x="9" y="8" width="1" height="1" fill="#6f3576" />
</svg>