<svg xmlns="http://www.w3.org/2000/svg" width="10" height="10" shape-rendering="crispEdges">
<rect x="5" y="2" width="1" height="1" fill="#b57edc" />
<rect x="6" y="2" width="1" height="1" fill="#b57edc" />
<rect x="7" y="2" width="1" height="1" fill="#b57edc" />
<rect x="4" y="3" width="1" height="1" fill="#57528e" />
<rect x="5" y="3" width="1" height="1" fill="#57528e" />
<rect x="6" y="3" width="1" height="1" fill="#57528e" />
<rect x="7" y="3" width="1" height="1" fill="#9270c1" />
<rect x="8" y="3" width="1" height="1" fill="#b57edc" />
<rect x="3" y="4" width="1" height="1" fill="#b57edc" />
<rect x="4" y="4" width="1" height="1" fill="#b57edc" />
<rect x="5" y="4" width="1" height="1" fill="#b57edc" />
<rect x="6" y="4" width="1" height="1" fill="#9270c1" />
<rect x="7" y="4" width="1" height="1" fill="#57528e" />
<rect x="8" y="4" width="1" height="1" fill="#9270c1" />
<rect x="2" y="5" width="1" height="1" fill="#b57edc" />
<rect x="3" y="5" width="1" height="1" fill="#b57edc" />
<rect x="4" y="5" width="1" height="1" fill="#9270c1" />
<rect x="5" y="5" width="1" height="1" fill="#9270c1" />
<rect x="6" y="5" width="1" height="1" fill="#7361a8" />
<rect x="7" y="5" width="1" height="1" fill="#57528e" />
<rect x="8" y="5" width="1" height="1" fill="#bfa17a" />
<rect x="1" y="6" width="1" height="1" fill="#b57edc" />
<rect x="2" y="6" width="1" height="1" fill="#b57edc" />
<rect x="3" y="6" width="1" height="1" fill="#9270c1" />
<rect x="4" y="6" width="1" height="1" fill="#7361a8" />
<rect x="5" y="6" width="1" height="1" fill="#7361a8" />
<rect x="6" y="6" width="1" height="1" fill="#fcf3ec" />
<rect x="7" y="6" width="1" height="1" fill="#ffe6d3" />
<rect x="8" y="6" width="1" height="1" fill="#94725d" />
<rect x="1" y="7" width="1" height="1" fill="#fcf3ec" />
<rect x="2" y="7" width="1" height="1" fill="#fcf3ec" />
<rect x="3" y="7" width="1" height="1" fill="#ffe6d3" />
<rect x="4" y="7" width="1" height="1" fill="#ffe6d3" />
<rect x="5" y="7" width="1" height="1" fill="#ffe6d3" />
<rect x="6" y="7" width="1" height="1" fill="#ffe6d3" />
<rect x="7" y="7" width="1" height="1" fill="#6e4c49" />
<rect x="8" y="7" width="1" height="1" fill="#6e4c49" />
<rect x="1" y="8" width="1" height="1" fill="#bfa17a" />
<rect x="2" y="8" width="1" height="1" fill="#bfa17a" />
<rect x="3" y="8" width="1" height="1" fill="#bfa17a" />
<rect x="4" y="8" width="1" height="1" fill="#94725d" />
<rect x="5" y="8" width="1" height="1" fill="#94725d" />
<rect x="6" y="8" width="1" height="1" fill="#6e4c49" />
</svg>