<svg xmlns="http://www.w3.org/2000/svg" width="10" height="10" shape-rendering="crispEdges">
<rect x="4" y="0" width="1" height="1" fill="#854105" />
<rect x="5" y="0" width="1" height="1" fill="#4b1400" />
<rect x="3" y="1" width="1" height="1" fill="#3f3f3f" />
<rect x="4" y="1" width="1" height="1" fill="#d1d1d1" />
<rect x="5" y="1" width="1" height="1" fill="#a7a7a7" />
<rect x="6" y="1" width="1" height="1" fill="#3f3f3f" />
<rect x="2" y="2" width="1" height="1" fill="#f6f6f6" />
<rect x="3" y="2" width="1" height="1" fill="#1a1a1a" />
<rect x="4" y="2" width="1" height="1" fill="#a7a7a7" />
<rect x="5" y="2" width="1" height="1" fill="#8a8a8a" />
<rect x="6" y="2" width="1" height="1" fill="#3f3f3f" />
<rect x="2" y="3" width="1" height="1" fill="#e3e3e3" />
<rect x="3" y="3" width="1" height="1" fill="#1a1a1a" />
<rect x="4" y="3" width="1" height="1" fill="#d1d1d1" />
<rect x="5" y="3" width="1" height="1" fill="#a7a7a7" />
<rect x="6" y="3" width="1" height="1" fill="#3f3f3f" />
<rect x="7" y="3" width="1" height="1" fill="#3f3f3f" />
<rect x="2" y="4" width="1" height="1" fill="#3f3f3f" />
<rect x="3" y="4" width="1" height="1" fill="#f6f6f6" />
<rect x="4" y="4" width="1" height="1" fill="#a7a7a7" />
<rect x="5" y="4" width="1" height="1" fill="#8a8a8a" />
<rect x="6" y="4" width="1" height="1" fill="#3f3f3f" />
<rect x="7" y="4" width="1" height="1" fill="#1a1a1a" />
<rect x="2" y="5" width="1" height="1" fill="#3f3f3f" />
<rect x="3" y="5" width="1" height="1" fill="#9b6643" />
<rect x="4" y="5" width="1" height="1" fill="#d1d1d1" />
<rect x="5" y="5" width="1" height="1" fill="#a7a7a7" />
<rect x="6" y="5" width="1" height="1" fill="#3f3f3f" />
<rect x="7" y="5" width="1" height="1" fill="#1a1a1a" />
<rect x="2" y="6" width="1" height="1" fill="#1a1a1a" />
<rect x="3" y="6" width="1" height="1" fill="#1a1a1a" />
<rect x="4" y="6" width="1" height="1" fill="#f6f6f6" />
<rect x="5" y="6" width="1" height="1" fill="#8a8a8a" />
<rect x="6" y="6" width="1" height="1" fill="#1a1a1a" />
<rect x="7" y="6" width="1" height="1" fill="#1a1a1a" />
<rect x="1" y="7" width="1" height="1" fill="#854105" />
<rect x="2" y="7" width="1" height="1" fill="#854105" />
<rect x="3" y="7" width="1" height="1" fill="#9b6643" />
<rect x="4" y="7" width="1" height="1" fill="#b8784d" />
<rect x="5" y="7" width="1" height="1" fill="#b8784d" />
<rect x="6" y="7" width="1" height="1" fill="#b8784d" />
<rect x="7" y="7" width="1" height="1" fill="#9b6643" />
<rect x="8" y="7" width="1" height="1" fill="#854105" />
<rect x="1" y="8" width="1" height="1" fill="#854105" />
<rect x="2" y="8" width="1" height="1" fill="#9b6643" />
<rect x="3" y="8" width="1" height="1" fill="#b8784d" />
<rect x="4" y="8" width="1" height="1" fill="#b8784d" />
<rect x="5" y="8" width="1" height="1" fill="#9b6643" />
<rect x="6" y="8" width="1" height="1" fill="#9b6643" />
<rect x="7" y="8" width="1" height="1" fill="#854105" />
<rect x="8" y="8" width="1" height="1" fill="#4b1400" />
<rect x="1" y="9" width="1" height="1" fill="#4b1400" />
<rect x="2" y="9" width="1" height="1" fill="#854105" />
<rect x="3" y="9" width="1" height="1" fill="#854105" />
<rect x="4" y="9" width="1" height="1" fill="#854105" />
<rect x="5" y="9" width="1" height="1" fill="#854105" />
<rect x="6" y="9" width="1" height="1" fill="#4b1400" />
<rect x="7" y="9" width="1" height="1" fill="#4b1400" />
<rect x="8" y="9" width="1" height="1" fill="#4b1400" />
</svg>