<svg xmlns="http://www.w3.org/2000/svg" width="10" height="10" shape-rendering="crispEdges">
<rect x="2" y="0" width="1" height="1" fill="#ff8a23" />
<rect x="3" y="0" width="1" height="1" fill="#ffa036" />
<rect x="4" y="0" width="1" height="1" fill="#ffc64b" />
<rect x="5" y="0" width="1" height="1" fill="#ff9a46" />
<rect x="6" y="0" width="1" height="1" fill="#ff9a46" />
<rect x="7" y="0" width="1" height="1" fill="#ff7b3e" />
<rect x="1" y="1" width="1" height="1" fill="#ffc942" />
<rect x="2" y="1" width="1" height="1" fill="#fff9f6" />
<rect x="3" y="1" width="1" height="1" fill="#ffb53c" />
<rect x="4" y="1" width="1" height="1" fill="#ffffff" />
<rect x="5" y="1" width="1" height="1" fill="#ffffff" />
<rect x="6" y="1" width="1" height="1" fill="#f8ffa0" />
<rect x="7" y="1" width="1" height="1" fill="#ffffff" />
<rect x="8" y="1" width="1" height="1" fill="#ff9a46" />
<rect x="0" y="2" width="1" height="1" fill="#79427c" />
<rect x="1" y="2" width="1" height="1" fill="#fff9f6" />
<rect x="2" y="2" width="1" height="1" fill="#ffe0a5" />
<rect x="3" y="2" width="1" height="1" fill="#ffc942" />
<rect x="4" y="2" width="1" height="1" fill="#ffffff" />
<rect x="5" y="2" width="1" height="1" fill="#fff6d0" />
<rect x="6" y="2" width="1" height="1" fill="#fffa98" />
<rect x="7" y="2" width="1" height="1" fill="#fffff6" />
<rect x="8" y="2" width="1" height="1" fill="#f8ffa0" />
<rect x="9" y="2" width="1" height="1" fill="#79427c" />
<rect x="0" y="3" width="1" height="1" fill="#50215a" />
<rect x="1" y="3" width="1" height="1" fill="#79427c" />
<rect x="2" y="3" width="1" height="1" fill="#50215a" />
<rect x="3" y="3" width="1" height="1" fill="#79427c" />
<rect x="4" y="3" width="1" height="1" fill="#50215a" />
<rect x="5" y="3" width="1" height="1" fill="#50215a" />
<rect x="6" y="3" width="1" height="1" fill="#79427c" />
<rect x="7" y="3" width="1" height="1" fill="#50215a" />
<rect x="8" y="3" width="1" height="1" fill="#79427c" />
<rect x="9" y="3" width="1" height="1" fill="#50215a" />
<rect x="0" y="4" width="1" height="1" fill="#1d0529" />
<rect x="1" y="4" width="1" height="1" fill="#50215a" />
<rect x="2" y="4" width="1" height="1" fill="#31113d" />
<rect x="3" y="4" width="1" height="1" fill="#50215a" />
<rect x="4" y="4" width="1" height="1" fill="#1d0529" />
<rect x="5" y="4" width="1" height="1" fill="#1d0529" />
<rect x="6" y="4" width="1" height="1" fill="#50215a" />
<rect x="7" y="4" width="1" height="1" fill="#31113d" />
<rect x="8" y="4" width="1" height="1" fill="#50215a" />
<rect x="9" y="4" width="1" height="1" fill="#1d0529" />
<rect x="0" y="5" width="1" height="1" fill="#ff8a23" />
<rect x="1" y="5" width="1" height="1" fill="#31113d" />
<rect x="2" y="5" width="1" height="1" fill="#1d0529" />
<rect x="3" y="5" width="1" height="1" fill="#31113d" />
<rect x="4" y="5" width="1" height="1" fill="#ffd751" />
<rect x="5" y="5" width="1" height="1" fill="#ffe858" />
<rect x="6" y="5" width="1" height="1" fill="#31113d" />
<rect x="7" y="5" width="1" height="1" fill="#1d0529" />
<rect x="8" y="5" width="1" height="1" fill="#31113d" />
<rect x="9" y="5" width="1" height="1" fill="#ff7b3e" />
<rect x="0" y="6" width="1" height="1" fill="#ffda62" />
<rect x="1" y="6" width="1" height="1" fill="#ffb53c" />
<rect x="2" y="6" width="1" height="1" fill="#ffc942" />
<rect x="3" y="6" width="1" height="1" fill="#ffc64b" />
<rect x="4" y="6" width="1" height="1" fill="#ffee75" />
<rect x="5" y="6" width="1" height="1" fill="#f5ff84" />
<rect x="6" y="6" width="1" height="1" fill="#ffe162" />
<rect x="7" y="6" width="1" height="1" fill="#f2f2c8" />
<rect x="8" y="6" width="1" height="1" fill="#ffcd50" />
<rect x="9" y="6" width="1" height="1" fill="#ff4c00" />
<rect x="0" y="7" width="1" height="1" fill="#ff884f" />
<rect x="1" y="7" width="1" height="1" fill="#fff9f6" />
<rect x="2" y="7" width="1" height="1" fill="#ffe0a5" />
<rect x="3" y="7" width="1" height="1" fill="#ff391a" />
<rect x="4" y="7" width="1" height="1" fill="#ff391a" />
<rect x="5" y="7" width="1" height="1" fill="#ff391a" />
<rect x="6" y="7" width="1" height="1" fill="#eaf271" />
<rect x="7" y="7" width="1" height="1" fill="#fbebeb" />
<rect x="8" y="7" width="1" height="1" fill="#f2f2c8" />
<rect x="9" y="7" width="1" height="1" fill="#ff7b3e" />
<rect x="1" y="8" width="1" height="1" fill="#ffa036" />
<rect x="2" y="8" width="1" height="1" fill="#fff3e4" />
<rect x="3" y="8" width="1" height="1" fill="#e6ff29" />
<rect x="4" y="8" width="1" height="1" fill="#ffffdd" />
<rect x="5" y="8" width="1" height="1" fill="#ffffdd" />
<rect x="6" y="8" width="1" height="1" fill="#f6ef15" />
<rect x="7" y="8" width="1" height="1" fill="#d8f23f" />
<rect x="8" y="8" width="1" height="1" fill="#ff4c00" />
<rect x="2" y="9" width="1" height="1" fill="#ff8900" />
<rect x="3" y="9" width="1" height="1" fill="#ffb400" />
<rect x="4" y="9" width="1" height="1" fill="#ffa036" />
<rect x="5" y="9" width="1" height="1" fill="#ff8900" />
<rect x="6" y="9" width="1" height="1" fill="#ff7b3e" />
<rect x="7" y="9" width="1" height="1" fill="#ff720e" />
</svg>