<svg xmlns="http://www.w3.org/2000/svg" width="10" height="10" shape-rendering="crispEdges">
<rect x="1" y="1" width="1" height="1" fill="#9fa2ff" />
<rect x="2" y="1" width="1" height="1" fill="#9fa2ff" />
<rect x="4" y="1" width="1" height="1" fill="#a0a2ff" />
<rect x="5" y="1" width="1" height="1" fill="#9fa2ff" />
<rect x="0" y="2" width="1" height="1" fill="#9fa2ff" />
<rect x="2" y="2" width="1" height="1" fill="#004d85" />
<rect x="3" y="2" width="1" height="1" fill="#6f55c3" />
<rect x="4" y="2" width="1" height="1" fill="#004d85" />
<rect x="5" y="2" width="1" height="1" fill="#a0a3ff" />
<rect x="1" y="3" width="1" height="1" fill="#a0a3ff" />
<rect x="2" y="3" width="1" height="1" fill="#6e55c3" />
<rect x="3" y="3" width="1" height="1" fill="#6c2d8f" />
<rect x="4" y="3" width="1" height="1" fill="#eef7ff" />
<rect x="5" y="3" width="1" height="1" fill="#bdd8ef" />
<rect x="6" y="3" width="1" height="1" fill="#bdd02b" />
<rect x="8" y="3" width="1" height="1" fill="#daed72" />
<rect x="9" y="3" width="1" height="1" fill="#daee73" />
<rect x="1" y="4" width="1" height="1" fill="#004c84" />
<rect x="2" y="4" width="1" height="1" fill="#bce0ff" />
<rect x="3" y="4" width="1" height="1" fill="#6c2e8f" />
<rect x="4" y="4" width="1" height="1" fill="#edf7ff" />
<rect x="5" y="4" width="1" height="1" fill="#bdd8ee" />
<rect x="6" y="4" width="1" height="1" fill="#002000" />
<rect x="7" y="4" width="1" height="1" fill="#bcd02b" />
<rect x="8" y="4" width="1" height="1" fill="#001f00" />
<rect x="1" y="5" width="1" height="1" fill="#6c2e8f" />
<rect x="2" y="5" width="1" height="1" fill="#6f56c4" />
<rect x="3" y="5" width="1" height="1" fill="#9fa2ff" />
<rect x="4" y="5" width="1" height="1" fill="#9fa2ff" />
<rect x="5" y="5" width="1" height="1" fill="#6f55c3" />
<rect x="6" y="5" width="1" height="1" fill="#3d5a00" />
<rect x="7" y="5" width="1" height="1" fill="#7ea700" />
<rect x="8" y="5" width="1" height="1" fill="#3d5a00" />
<rect x="9" y="5" width="1" height="1" fill="#002000" />
<rect x="1" y="6" width="1" height="1" fill="#004c84" />
<rect x="2" y="6" width="1" height="1" fill="#bce0ff" />
<rect x="3" y="6" width="1" height="1" fill="#6c2e8f" />
<rect x="4" y="6" width="1" height="1" fill="#bce0ff" />
<rect x="5" y="6" width="1" height="1" fill="#4d8ec3" />
<rect x="6" y="6" width="1" height="1" fill="#bcd02b" />
<rect x="7" y="6" width="1" height="1" fill="#7fa700" />
<rect x="8" y="6" width="1" height="1" fill="#bcd02b" />
<rect x="9" y="6" width="1" height="1" fill="#4a7000" />
<rect x="1" y="7" width="1" height="1" fill="#004d85" />
<rect x="2" y="7" width="1" height="1" fill="#bce0ff" />
<rect x="3" y="7" width="1" height="1" fill="#6f56c4" />
<rect x="4" y="7" width="1" height="1" fill="#eef8ff" />
<rect x="5" y="7" width="1" height="1" fill="#bdd8ee" />
<rect x="6" y="7" width="1" height="1" fill="#3c5900" />
<rect x="7" y="7" width="1" height="1" fill="#bdd02b" />
<rect x="8" y="7" width="1" height="1" fill="#3d5900" />
<rect x="9" y="7" width="1" height="1" fill="#002000" />
<rect x="1" y="8" width="1" height="1" fill="#004d85" />
<rect x="2" y="8" width="1" height="1" fill="#bde0ff" />
<rect x="3" y="8" width="1" height="1" fill="#a0a3ff" />
<rect x="4" y="8" width="1" height="1" fill="#eef7ff" />
<rect x="5" y="8" width="1" height="1" fill="#4d8fc4" />
<rect x="6" y="8" width="1" height="1" fill="#002000" />
<rect x="7" y="8" width="1" height="1" fill="#4b7100" />
<rect x="8" y="8" width="1" height="1" fill="#002000" />
<rect x="1" y="9" width="1" height="1" fill="#4d8ec3" />
<rect x="2" y="9" width="1" height="1" fill="#4d8ec3" />
<rect x="3" y="9" width="1" height="1" fill="#6c2d8f" />
<rect x="4" y="9" width="1" height="1" fill="#4d8ec3" />
<rect x="5" y="9" width="1" height="1" fill="#4d8ec3" />
</svg>