<svg xmlns="http://www.w3.org/2000/svg" width="10" height="10" shape-rendering="crispEdges">
<rect x="0" y="0" width="1" height="1" fill="#5d2c28" />
<rect x="1" y="0" width="1" height="1" fill="#391f21" />
<rect x="8" y="0" width="1" height="1" fill="#391f21" />
<rect x="9" y="0" width="1" height="1" fill="#5d2c28" />
<rect x="1" y="1" width="1" height="1" fill="#1c121c" />
<rect x="3" y="1" width="1" height="1" fill="#5d2c28" />
<rect x="6" y="1" width="1" height="1" fill="#5d2c28" />
<rect x="8" y="1" width="1" height="1" fill="#1c121c" />
<rect x="0" y="2" width="1" height="1" fill="#391f21" />
<rect x="1" y="2" width="1" height="1" fill="#1c121c" />
<rect x="2" y="2" width="1" height="1" fill="#1c121c" />
<rect x="3" y="2" width="1" height="1" fill="#391f21" />
<rect x="6" y="2" width="1" height="1" fill="#391f21" />
<rect x="7" y="2" width="1" height="1" fill="#1c121c" />
<rect x="8" y="2" width="1" height="1" fill="#1c121c" />
<rect x="9" y="2" width="1" height="1" fill="#391f21" />
<rect x="2" y="3" width="1" height="1" fill="#1c121c" />
<rect x="3" y="3" width="1" height="1" fill="#5d2c28" />
<rect x="4" y="3" width="1" height="1" fill="#8a4836" />
<rect x="5" y="3" width="1" height="1" fill="#8a4836" />
<rect x="6" y="3" width="1" height="1" fill="#5d2c28" />
<rect x="7" y="3" width="1" height="1" fill="#1c121c" />
<rect x="0" y="4" width="1" height="1" fill="#bf6f4a" />
<rect x="1" y="4" width="1" height="1" fill="#8a4836" />
<rect x="2" y="4" width="1" height="1" fill="#c7cfdd" />
<rect x="3" y="4" width="1" height="1" fill="#ffffff" />
<rect x="4" y="4" width="1" height="1" fill="#bf6f4a" />
<rect x="5" y="4" width="1" height="1" fill="#e69c69" />
<rect x="6" y="4" width="1" height="1" fill="#ffffff" />
<rect x="7" y="4" width="1" height="1" fill="#c7cfdd" />
<rect x="8" y="4" width="1" height="1" fill="#8a4836" />
<rect x="9" y="4" width="1" height="1" fill="#bf6f4a" />
<rect x="1" y="5" width="1" height="1" fill="#e69c8c" />
<rect x="2" y="5" width="1" height="1" fill="#ffffff" />
<rect x="3" y="5" width="1" height="1" fill="#1a1932" />
<rect x="4" y="5" width="1" height="1" fill="#bf6f4a" />
<rect x="5" y="5" width="1" height="1" fill="#bf6f4a" />
<rect x="6" y="5" width="1" height="1" fill="#1a1932" />
<rect x="7" y="5" width="1" height="1" fill="#ffffff" />
<rect x="8" y="5" width="1" height="1" fill="#e69c8c" />
<rect x="1" y="6" width="1" height="1" fill="#8a4836" />
<rect x="2" y="6" width="1" height="1" fill="#ffffff" />
<rect x="3" y="6" width="1" height="1" fill="#2a2f4e" />
<rect x="4" y="6" width="1" height="1" fill="#e69c69" />
<rect x="5" y="6" width="1" height="1" fill="#bf6f4a" />
<rect x="6" y="6" width="1" height="1" fill="#2a2f4e" />
<rect x="7" y="6" width="1" height="1" fill="#ffffff" />
<rect x="8" y="6" width="1" height="1" fill="#8a4836" />
<rect x="1" y="7" width="1" height="1" fill="#8a4836" />
<rect x="2" y="7" width="1" height="1" fill="#e69c69" />
<rect x="3" y="7" width="1" height="1" fill="#bf6f4a" />
<rect x="4" y="7" width="1" height="1" fill="#ea323c" />
<rect x="5" y="7" width="1" height="1" fill="#c42430" />
<rect x="6" y="7" width="1" height="1" fill="#bf6f4a" />
<rect x="7" y="7" width="1" height="1" fill="#bf6f4a" />
<rect x="8" y="7" width="1" height="1" fill="#8a4836" />
<rect x="2" y="8" width="1" height="1" fill="#5d2c28" />
<rect x="3" y="8" width="1" height="1" fill="#bf6f4a" />
<rect x="4" y="8" width="1" height="1" fill="#bf6f4a" />
<rect x="5" y="8" width="1" height="1" fill="#e69c69" />
<rect x="6" y="8" width="1" height="1" fill="#bf6f4a" />
<rect x="7" y="8" width="1" height="1" fill="#5d2c28" />
<rect x="3" y="9" width="1" height="1" fill="#5d2c28" />
<rect x="4" y="9" width="1" height="1" fill="#5d2c28" />
<rect x="5" y="9" width="1" height="1" fill="#5d2c28" />
<rect x="6" y="9" width="1" height="1" fill="#5d2c28" />
</svg>