<svg xmlns="http://www.w3.org/2000/svg" width="10" height="10" shape-rendering="crispEdges">
<rect x="3" y="1" width="1" height="1" fill="#fff5fb" />
<rect x="4" y="1" width="1" height="1" fill="#ffc9e8" />
<rect x="5" y="1" width="1" height="1" fill="#fff4fa" />
<rect x="6" y="1" width="1" height="1" fill="#fcfdfe" />
<rect x="2" y="2" width="1" height="1" fill="#ffa2d6" />
<rect x="3" y="2" width="1" height="1" fill="#ffa9d9" />
<rect x="4" y="2" width="1" height="1" fill="#ffbce2" />
<rect x="5" y="2" width="1" height="1" fill="#ff9cd3" />
<rect x="6" y="2" width="1" height="1" fill="#ff9fd5" />
<rect x="7" y="2" width="1" height="1" fill="#fcf8fc" />
<rect x="1" y="3" width="1" height="1" fill="#fcf6fa" />
<rect x="2" y="3" width="1" height="1" fill="#ffbae0" />
<rect x="3" y="3" width="1" height="1" fill="#f7fafc" />
<rect x="4" y="3" width="1" height="1" fill="#f7fafc" />
<rect x="5" y="3" width="1" height="1" fill="#fef3fa" />
<rect x="6" y="3" width="1" height="1" fill="#ff9ad2" />
<rect x="7" y="3" width="1" height="1" fill="#ffceea" />
<rect x="8" y="3" width="1" height="1" fill="#f7fafc" />
<rect x="1" y="4" width="1" height="1" fill="#ffd5ee" />
<rect x="2" y="4" width="1" height="1" fill="#faf6fa" />
<rect x="3" y="4" width="1" height="1" fill="#f6f9fb" />
<rect x="4" y="4" width="1" height="1" fill="#ffdaef" />
<rect x="5" y="4" width="1" height="1" fill="#f6f9fb" />
<rect x="6" y="4" width="1" height="1" fill="#ffb4de" />
<rect x="7" y="4" width="1" height="1" fill="#ffdaef" />
<rect x="8" y="4" width="1" height="1" fill="#f6f9fb" />
<rect x="1" y="5" width="1" height="1" fill="#ffd1ec" />
<rect x="2" y="5" width="1" height="1" fill="#f7f5f9" />
<rect x="3" y="5" width="1" height="1" fill="#f3f8fa" />
<rect x="4" y="5" width="1" height="1" fill="#ffaedc" />
<rect x="5" y="5" width="1" height="1" fill="#ffaada" />
<rect x="6" y="5" width="1" height="1" fill="#ffb3df" />
<rect x="7" y="5" width="1" height="1" fill="#f3f8fa" />
<rect x="8" y="5" width="1" height="1" fill="#ffd6ed" />
<rect x="1" y="6" width="1" height="1" fill="#fbf1f9" />
<rect x="2" y="6" width="1" height="1" fill="#ffb6df" />
<rect x="3" y="6" width="1" height="1" fill="#f2f7f9" />
<rect x="4" y="6" width="1" height="1" fill="#f4f5f9" />
<rect x="5" y="6" width="1" height="1" fill="#ffcdea" />
<rect x="6" y="6" width="1" height="1" fill="#f4f6f9" />
<rect x="7" y="6" width="1" height="1" fill="#ffe7f4" />
<rect x="8" y="6" width="1" height="1" fill="#ffb9e0" />
<rect x="2" y="7" width="1" height="1" fill="#ff9cd4" />
<rect x="3" y="7" width="1" height="1" fill="#ffa4d7" />
<rect x="4" y="7" width="1" height="1" fill="#ffbae1" />
<rect x="5" y="7" width="1" height="1" fill="#ffbbe2" />
<rect x="6" y="7" width="1" height="1" fill="#ffaada" />
<rect x="7" y="7" width="1" height="1" fill="#ff9ed4" />
<rect x="3" y="8" width="1" height="1" fill="#ffb3de" />
<rect x="4" y="8" width="1" height="1" fill="#ff9cd4" />
<rect x="5" y="8" width="1" height="1" fill="#ff9dd4" />
<rect x="6" y="8" width="1" height="1" fill="#ffb3df" />
</svg>