<svg xmlns="http://www.w3.org/2000/svg" width="10" height="10" shape-rendering="crispEdges">
<rect x="0" y="0" width="1" height="1" fill="#885537" />
<rect x="1" y="0" width="1" height="1" fill="#885537" />
<rect x="8" y="0" width="1" height="1" fill="#885537" />
<rect x="9" y="0" width="1" height="1" fill="#885537" />
<rect x="0" y="1" width="1" height="1" fill="#885537" />
<rect x="1" y="1" width="1" height="1" fill="#885537" />
<rect x="2" y="1" width="1" height="1" fill="#7c432e" />
<rect x="3" y="1" width="1" height="1" fill="#885537" />
<rect x="4" y="1" width="1" height="1" fill="#885537" />
<rect x="5" y="1" width="1" height="1" fill="#885537" />
<rect x="6" y="1" width="1" height="1" fill="#885537" />
<rect x="7" y="1" width="1" height="1" fill="#7c432e" />
<rect x="8" y="1" width="1" height="1" fill="#885537" />
<rect x="9" y="1" width="1" height="1" fill="#885537" />
<rect x="0" y="2" width="1" height="1" fill="#7c432e" />
<rect x="1" y="2" width="1" height="1" fill="#ff8383" />
<rect x="2" y="2" width="1" height="1" fill="#7c432e" />
<rect x="3" y="2" width="1" height="1" fill="#ff0000" />
<rect x="4" y="2" width="1" height="1" fill="#885537" />
<rect x="5" y="2" width="1" height="1" fill="#885537" />
<rect x="6" y="2" width="1" height="1" fill="#ff8383" />
<rect x="7" y="2" width="1" height="1" fill="#7c432e" />
<rect x="8" y="2" width="1" height="1" fill="#ff0000" />
<rect x="9" y="2" width="1" height="1" fill="#7c432e" />
<rect x="1" y="3" width="1" height="1" fill="#ff8383" />
<rect x="2" y="3" width="1" height="1" fill="#ff8383" />
<rect x="3" y="3" width="1" height="1" fill="#ff0000" />
<rect x="4" y="3" width="1" height="1" fill="#885537" />
<rect x="5" y="3" width="1" height="1" fill="#885537" />
<rect x="6" y="3" width="1" height="1" fill="#ff8383" />
<rect x="7" y="3" width="1" height="1" fill="#ff8383" />
<rect x="8" y="3" width="1" height="1" fill="#ff0000" />
<rect x="0" y="4" width="1" height="1" fill="#885537" />
<rect x="1" y="4" width="1" height="1" fill="#885537" />
<rect x="2" y="4" width="1" height="1" fill="#c90000" />
<rect x="3" y="4" width="1" height="1" fill="#7c432e" />
<rect x="4" y="4" width="1" height="1" fill="#292320" />
<rect x="5" y="4" width="1" height="1" fill="#292320" />
<rect x="6" y="4" width="1" height="1" fill="#7c432e" />
<rect x="7" y="4" width="1" height="1" fill="#c90000" />
<rect x="8" y="4" width="1" height="1" fill="#885537" />
<rect x="9" y="4" width="1" height="1" fill="#885537" />
<rect x="0" y="5" width="1" height="1" fill="#7c432e" />
<rect x="1" y="5" width="1" height="1" fill="#7c432e" />
<rect x="2" y="5" width="1" height="1" fill="#d6b78b" />
<rect x="3" y="5" width="1" height="1" fill="#d6b78b" />
<rect x="4" y="5" width="1" height="1" fill="#292320" />
<rect x="5" y="5" width="1" height="1" fill="#292320" />
<rect x="6" y="5" width="1" height="1" fill="#d6b78b" />
<rect x="7" y="5" width="1" height="1" fill="#d6b78b" />
<rect x="8" y="5" width="1" height="1" fill="#7c432e" />
<rect x="9" y="5" width="1" height="1" fill="#7c432e" />
<rect x="0" y="6" width="1" height="1" fill="#bf9a71" />
<rect x="1" y="6" width="1" height="1" fill="#bf9a71" />
<rect x="2" y="6" width="1" height="1" fill="#d6b78b" />
<rect x="3" y="6" width="1" height="1" fill="#0f0e0e" />
<rect x="4" y="6" width="1" height="1" fill="#d6b78b" />
<rect x="5" y="6" width="1" height="1" fill="#d6b78b" />
<rect x="6" y="6" width="1" height="1" fill="#0f0e0e" />
<rect x="7" y="6" width="1" height="1" fill="#d6b78b" />
<rect x="8" y="6" width="1" height="1" fill="#bf9a71" />
<rect x="9" y="6" width="1" height="1" fill="#bf9a71" />
<rect x="0" y="7" width="1" height="1" fill="#bf9a71" />
<rect x="1" y="7" width="1" height="1" fill="#c50c0c" />
<rect x="2" y="7" width="1" height="1" fill="#a90202" />
<rect x="3" y="7" width="1" height="1" fill="#bf9a71" />
<rect x="4" y="7" width="1" height="1" fill="#0f0e0e" />
<rect x="5" y="7" width="1" height="1" fill="#0f0e0e" />
<rect x="6" y="7" width="1" height="1" fill="#bf9a71" />
<rect x="7" y="7" width="1" height="1" fill="#a90202" />
<rect x="8" y="7" width="1" height="1" fill="#c50c0c" />
<rect x="9" y="7" width="1" height="1" fill="#bf9a71" />
<rect x="1" y="8" width="1" height="1" fill="#ef0606" />
<rect x="2" y="8" width="1" height="1" fill="#ef0606" />
<rect x="3" y="8" width="1" height="1" fill="#c50c0c" />
<rect x="4" y="8" width="1" height="1" fill="#ef0606" />
<rect x="5" y="8" width="1" height="1" fill="#ef0606" />
<rect x="6" y="8" width="1" height="1" fill="#c50c0c" />
<rect x="7" y="8" width="1" height="1" fill="#ef0606" />
<rect x="8" y="8" width="1" height="1" fill="#ef0606" />
<rect x="1" y="9" width="1" height="1" fill="#c50c0c" />
<rect x="2" y="9" width="1" height="1" fill="#a90202" />
<rect x="4" y="9" width="1" height="1" fill="#ef0606" />
<rect x="5" y="9" width="1" height="1" fill="#ef0606" />
<rect x="7" y="9" width="1" height="1" fill="#a90202" />
<rect x="8" y="9" width="1" height="1" fill="#c50c0c" />
</svg>