<svg xmlns="http://www.w3.org/2000/svg" width="10" height="10" shape-rendering="crispEdges">
<rect x="2" y="0" width="1" height="1" fill="#df74c0" />
<rect x="3" y="0" width="1" height="1" fill="#e4a1d8" />
<rect x="4" y="0" width="1" height="1" fill="#84bad6" />
<rect x="5" y="0" width="1" height="1" fill="#568abe" />
<rect x="6" y="0" width="1" height="1" fill="#d2b184" />
<rect x="7" y="0" width="1" height="1" fill="#b57a5a" />
<rect x="1" y="1" width="1" height="1" fill="#e4a1d8" />
<rect x="2" y="1" width="1" height="1" fill="#e6e6ff" />
<rect x="3" y="1" width="1" height="1" fill="#efc5ec" />
<rect x="4" y="1" width="1" height="1" fill="#c9ffe4" />
<rect x="5" y="1" width="1" height="1" fill="#c9ffe4" />
<rect x="6" y="1" width="1" height="1" fill="#ffcac5" />
<rect x="7" y="1" width="1" height="1" fill="#ffe8e8" />
<rect x="8" y="1" width="1" height="1" fill="#ff828c" />
<rect x="0" y="2" width="1" height="1" fill="#df74c0" />
<rect x="1" y="2" width="1" height="1" fill="#e6e6ff" />
<rect x="2" y="2" width="1" height="1" fill="#e1d6fe" />
<rect x="3" y="2" width="1" height="1" fill="#d4aee7" />
<rect x="4" y="2" width="1" height="1" fill="#c9ffe4" />
<rect x="5" y="2" width="1" height="1" fill="#aafaf7" />
<rect x="6" y="2" width="1" height="1" fill="#ffdada" />
<rect x="7" y="2" width="1" height="1" fill="#ffe8e8" />
<rect x="8" y="2" width="1" height="1" fill="#ffc5d2" />
<rect x="9" y="2" width="1" height="1" fill="#b57a5a" />
<rect x="0" y="3" width="1" height="1" fill="#df74c0" />
<rect x="1" y="3" width="1" height="1" fill="#ffffff" />
<rect x="2" y="3" width="1" height="1" fill="#ffffff" />
<rect x="3" y="3" width="1" height="1" fill="#ffffff" />
<rect x="4" y="3" width="1" height="1" fill="#65dce3" />
<rect x="5" y="3" width="1" height="1" fill="#acdcea" />
<rect x="6" y="3" width="1" height="1" fill="#ffffff" />
<rect x="7" y="3" width="1" height="1" fill="#ffffff" />
<rect x="8" y="3" width="1" height="1" fill="#ffffff" />
<rect x="9" y="3" width="1" height="1" fill="#e49588" />
<rect x="0" y="4" width="1" height="1" fill="#6476d0" />
<rect x="1" y="4" width="1" height="1" fill="#ffffff" />
<rect x="2" y="4" width="1" height="1" fill="#58315c" />
<rect x="3" y="4" width="1" height="1" fill="#aeadc9" />
<rect x="4" y="4" width="1" height="1" fill="#aafaf7" />
<rect x="5" y="4" width="1" height="1" fill="#acdcea" />
<rect x="6" y="4" width="1" height="1" fill="#32315c" />
<rect x="7" y="4" width="1" height="1" fill="#8cc6c7" />
<rect x="8" y="4" width="1" height="1" fill="#ffffff" />
<rect x="9" y="4" width="1" height="1" fill="#00cac2" />
<rect x="0" y="5" width="1" height="1" fill="#6476d0" />
<rect x="1" y="5" width="1" height="1" fill="#ffffff" />
<rect x="2" y="5" width="1" height="1" fill="#58315c" />
<rect x="3" y="5" width="1" height="1" fill="#58315c" />
<rect x="4" y="5" width="1" height="1" fill="#acdcea" />
<rect x="5" y="5" width="1" height="1" fill="#65dce3" />
<rect x="6" y="5" width="1" height="1" fill="#32315c" />
<rect x="7" y="5" width="1" height="1" fill="#15425a" />
<rect x="8" y="5" width="1" height="1" fill="#ffffff" />
<rect x="9" y="5" width="1" height="1" fill="#00cac2" />
<rect x="0" y="6" width="1" height="1" fill="#9274c0" />
<rect x="1" y="6" width="1" height="1" fill="#c3c8ec" />
<rect x="2" y="6" width="1" height="1" fill="#9bbde5" />
<rect x="3" y="6" width="1" height="1" fill="#a6a1d8" />
<rect x="4" y="6" width="1" height="1" fill="#65dce3" />
<rect x="5" y="6" width="1" height="1" fill="#50e3cd" />
<rect x="6" y="6" width="1" height="1" fill="#4cd4d4" />
<rect x="7" y="6" width="1" height="1" fill="#50e3b2" />
<rect x="8" y="6" width="1" height="1" fill="#00ca8c" />
<rect x="9" y="6" width="1" height="1" fill="#00baa5" />
<rect x="0" y="7" width="1" height="1" fill="#9274c0" />
<rect x="1" y="7" width="1" height="1" fill="#c9ffff" />
<rect x="2" y="7" width="1" height="1" fill="#c2e9fc" />
<rect x="3" y="7" width="1" height="1" fill="#9bbde5" />
<rect x="4" y="7" width="1" height="1" fill="#32315c" />
<rect x="5" y="7" width="1" height="1" fill="#98eae4" />
<rect x="6" y="7" width="1" height="1" fill="#50e3cd" />
<rect x="7" y="7" width="1" height="1" fill="#aafad2" />
<rect x="8" y="7" width="1" height="1" fill="#98ead1" />
<rect x="9" y="7" width="1" height="1" fill="#00938f" />
<rect x="1" y="8" width="1" height="1" fill="#a6a1d8" />
<rect x="2" y="8" width="1" height="1" fill="#c9ffff" />
<rect x="3" y="8" width="1" height="1" fill="#9bbde5" />
<rect x="4" y="8" width="1" height="1" fill="#acdcea" />
<rect x="5" y="8" width="1" height="1" fill="#98eae4" />
<rect x="6" y="8" width="1" height="1" fill="#00cabb" />
<rect x="7" y="8" width="1" height="1" fill="#4cd4ba" />
<rect x="8" y="8" width="1" height="1" fill="#00ca8c" />
<rect x="2" y="9" width="1" height="1" fill="#9274c0" />
<rect x="3" y="9" width="1" height="1" fill="#9274c0" />
<rect x="4" y="9" width="1" height="1" fill="#00abce" />
<rect x="5" y="9" width="1" height="1" fill="#00cabb" />
<rect x="6" y="9" width="1" height="1" fill="#00b0bc" />
<rect x="7" y="9" width="1" height="1" fill="#00938f" />
</svg>