<svg xmlns="http://www.w3.org/2000/svg" width="10" height="10" shape-rendering="crispEdges">
<rect x="3" y="1" width="1" height="1" fill="#5ec1c7" />
<rect x="4" y="1" width="1" height="1" fill="#5ec1c7" />
<rect x="5" y="1" width="1" height="1" fill="#386d9b" />
<rect x="2" y="2" width="1" height="1" fill="#5ec1c7" />
<rect x="3" y="2" width="1" height="1" fill="#a2efd2" />
<rect x="4" y="2" width="1" height="1" fill="#a2efd2" />
<rect x="5" y="2" width="1" height="1" fill="#80dfcf" />
<rect x="6" y="2" width="1" height="1" fill="#386d9b" />
<rect x="2" y="3" width="1" height="1" fill="#4394b0" />
<rect x="3" y="3" width="1" height="1" fill="#a2efd2" />
<rect x="4" y="3" width="1" height="1" fill="#5ec1c7" />
<rect x="5" y="3" width="1" height="1" fill="#80dfcf" />
<rect x="6" y="3" width="1" height="1" fill="#334f88" />
<rect x="2" y="4" width="1" height="1" fill="#386d9b" />
<rect x="3" y="4" width="1" height="1" fill="#a2efd2" />
<rect x="4" y="4" width="1" height="1" fill="#5ec1c7" />
<rect x="5" y="4" width="1" height="1" fill="#386d9b" />
<rect x="6" y="4" width="1" height="1" fill="#334f88" />
<rect x="2" y="5" width="1" height="1" fill="#386d9b" />
<rect x="3" y="5" width="1" height="1" fill="#a2efd2" />
<rect x="4" y="5" width="1" height="1" fill="#4394b0" />
<rect x="5" y="5" width="1" height="1" fill="#386d9b" />
<rect x="6" y="5" width="1" height="1" fill="#334f88" />
<rect x="2" y="6" width="1" height="1" fill="#386d9b" />
<rect x="3" y="6" width="1" height="1" fill="#80dfcf" />
<rect x="4" y="6" width="1" height="1" fill="#4394b0" />
<rect x="5" y="6" width="1" height="1" fill="#386d9b" />
<rect x="6" y="6" width="1" height="1" fill="#334f88" />
<rect x="2" y="7" width="1" height="1" fill="#334f88" />
<rect x="3" y="7" width="1" height="1" fill="#334f88" />
<rect x="4" y="7" width="1" height="1" fill="#313977" />
<rect x="5" y="7" width="1" height="1" fill="#313977" />
<rect x="6" y="7" width="1" height="1" fill="#313977" />
<rect x="4" y="8" width="1" height="1" fill="#77453d" />
<rect x="4" y="9" width="1" height="1" fill="#a87656" />
</svg>