<svg xmlns="http://www.w3.org/2000/svg" width="10" height="10" shape-rendering="crispEdges">
<rect x="2" y="1" width="1" height="1" fill="#000000" />
<rect x="3" y="1" width="1" height="1" fill="#060606" />
<rect x="4" y="1" width="1" height="1" fill="#0c0c0c" />
<rect x="5" y="1" width="1" height="1" fill="#0c0c0c" />
<rect x="6" y="1" width="1" height="1" fill="#060606" />
<rect x="7" y="1" width="1" height="1" fill="#000000" />
<rect x="2" y="2" width="1" height="1" fill="#060606" />
<rect x="7" y="2" width="1" height="1" fill="#060606" />
<rect x="2" y="3" width="1" height="1" fill="#0c0c0c" />
<rect x="7" y="3" width="1" height="1" fill="#0c0c0c" />
<rect x="1" y="4" width="1" height="1" fill="#1c1c1c" />
<rect x="2" y="4" width="1" height="1" fill="#0c0c0c" />
<rect x="3" y="4" width="1" height="1" fill="#0c0c0c" />
<rect x="6" y="4" width="1" height="1" fill="#0c0c0c" />
<rect x="7" y="4" width="1" height="1" fill="#0c0c0c" />
<rect x="8" y="4" width="1" height="1" fill="#1c1c1c" />
<rect x="1" y="5" width="1" height="1" fill="#ff7800" />
<rect x="2" y="5" width="1" height="1" fill="#0c0c0c" />
<rect x="3" y="5" width="1" height="1" fill="#000000" />
<rect x="5" y="5" width="1" height="1" fill="#ffffff" />
<rect x="6" y="5" width="1" height="1" fill="#000000" />
<rect x="7" y="5" width="1" height="1" fill="#0c0c0c" />
<rect x="8" y="5" width="1" height="1" fill="#ff7800" />
<rect x="1" y="6" width="1" height="1" fill="#1c1c1c" />
<rect x="2" y="6" width="1" height="1" fill="#0c0c0c" />
<rect x="3" y="6" width="1" height="1" fill="#000000" />
<rect x="4" y="6" width="1" height="1" fill="#ffffff" />
<rect x="6" y="6" width="1" height="1" fill="#000000" />
<rect x="7" y="6" width="1" height="1" fill="#0c0c0c" />
<rect x="8" y="6" width="1" height="1" fill="#1c1c1c" />
<rect x="1" y="7" width="1" height="1" fill="#030303" />
<rect x="2" y="7" width="1" height="1" fill="#030303" />
<rect x="3" y="7" width="1" height="1" fill="#030303" />
<rect x="6" y="7" width="1" height="1" fill="#030303" />
<rect x="7" y="7" width="1" height="1" fill="#030303" />
<rect x="8" y="7" width="1" height="1" fill="#030303" />
</svg>