<svg xmlns="http://www.w3.org/2000/svg" width="10" height="10" shape-rendering="crispEdges">
<rect x="2" y="0" width="1" height="1" fill="#00aacd" />
<rect x="3" y="0" width="1" height="1" fill="#83c2e5" />
<rect x="4" y="0" width="1" height="1" fill="#65d1e5" />
<rect x="5" y="0" width="1" height="1" fill="#00a5cd" />
<rect x="6" y="0" width="1" height="1" fill="#00a5cd" />
<rect x="7" y="0" width="1" height="1" fill="#5a4da8" />
<rect x="1" y="1" width="1" height="1" fill="#61d3e3" />
<rect x="2" y="1" width="1" height="1" fill="#d2feef" />
<rect x="3" y="1" width="1" height="1" fill="#00b8f4" />
<rect x="4" y="1" width="1" height="1" fill="#d2feef" />
<rect x="5" y="1" width="1" height="1" fill="#a0efe6" />
<rect x="6" y="1" width="1" height="1" fill="#08f0e9" />
<rect x="7" y="1" width="1" height="1" fill="#a0efe6" />
<rect x="8" y="1" width="1" height="1" fill="#5d7fcb" />
<rect x="0" y="2" width="1" height="1" fill="#00aacd" />
<rect x="1" y="2" width="1" height="1" fill="#d2feef" />
<rect x="2" y="2" width="1" height="1" fill="#22f1ed" />
<rect x="3" y="2" width="1" height="1" fill="#75d7de" />
<rect x="4" y="2" width="1" height="1" fill="#a0efe6" />
<rect x="5" y="2" width="1" height="1" fill="#22f1ef" />
<rect x="6" y="2" width="1" height="1" fill="#00d6f3" />
<rect x="7" y="2" width="1" height="1" fill="#80d7f4" />
<rect x="8" y="2" width="1" height="1" fill="#73dbf2" />
<rect x="9" y="2" width="1" height="1" fill="#5a4da8" />
<rect x="0" y="3" width="1" height="1" fill="#00bdcb" />
<rect x="1" y="3" width="1" height="1" fill="#08f0d7" />
<rect x="2" y="3" width="1" height="1" fill="#ffffff" />
<rect x="3" y="3" width="1" height="1" fill="#ffffff" />
<rect x="4" y="3" width="1" height="1" fill="#76dde3" />
<rect x="5" y="3" width="1" height="1" fill="#00d6f3" />
<rect x="6" y="3" width="1" height="1" fill="#ffffff" />
<rect x="7" y="3" width="1" height="1" fill="#ffffff" />
<rect x="8" y="3" width="1" height="1" fill="#35a3f5" />
<rect x="9" y="3" width="1" height="1" fill="#4a6bcf" />
<rect x="0" y="4" width="1" height="1" fill="#00bbc7" />
<rect x="1" y="4" width="1" height="1" fill="#ffffff" />
<rect x="2" y="4" width="1" height="1" fill="#9dafba" />
<rect x="3" y="4" width="1" height="1" fill="#3f294b" />
<rect x="4" y="4" width="1" height="1" fill="#22f1ef" />
<rect x="5" y="4" width="1" height="1" fill="#00d6f3" />
<rect x="6" y="4" width="1" height="1" fill="#3f294b" />
<rect x="7" y="4" width="1" height="1" fill="#afa7ba" />
<rect x="8" y="4" width="1" height="1" fill="#ffffff" />
<rect x="9" y="4" width="1" height="1" fill="#3d6bcb" />
<rect x="0" y="5" width="1" height="1" fill="#00bbc7" />
<rect x="1" y="5" width="1" height="1" fill="#ffffff" />
<rect x="2" y="5" width="1" height="1" fill="#30294b" />
<rect x="3" y="5" width="1" height="1" fill="#3f294b" />
<rect x="4" y="5" width="1" height="1" fill="#00d6f3" />
<rect x="5" y="5" width="1" height="1" fill="#08f0e9" />
<rect x="6" y="5" width="1" height="1" fill="#3f294b" />
<rect x="7" y="5" width="1" height="1" fill="#53294b" />
<rect x="8" y="5" width="1" height="1" fill="#ffffff" />
<rect x="9" y="5" width="1" height="1" fill="#3d6bcb" />
<rect x="0" y="6" width="1" height="1" fill="#00bdcb" />
<rect x="1" y="6" width="1" height="1" fill="#00efe9" />
<rect x="2" y="6" width="1" height="1" fill="#08f0d7" />
<rect x="3" y="6" width="1" height="1" fill="#65d1e5" />
<rect x="4" y="6" width="1" height="1" fill="#08f0e9" />
<rect x="5" y="6" width="1" height="1" fill="#08f0e9" />
<rect x="6" y="6" width="1" height="1" fill="#80c4e5" />
<rect x="7" y="6" width="1" height="1" fill="#8dcdf4" />
<rect x="8" y="6" width="1" height="1" fill="#776ecb" />
<rect x="9" y="6" width="1" height="1" fill="#7665c7" />
<rect x="0" y="7" width="1" height="1" fill="#00bdcb" />
<rect x="1" y="7" width="1" height="1" fill="#d2feef" />
<rect x="2" y="7" width="1" height="1" fill="#22f1dd" />
<rect x="3" y="7" width="1" height="1" fill="#3f294b" />
<rect x="4" y="7" width="1" height="1" fill="#3f294b" />
<rect x="5" y="7" width="1" height="1" fill="#3f294b" />
<rect x="6" y="7" width="1" height="1" fill="#3f294b" />
<rect x="7" y="7" width="1" height="1" fill="#98c8f5" />
<rect x="8" y="7" width="1" height="1" fill="#6c8af7" />
<rect x="9" y="7" width="1" height="1" fill="#6e38a8" />
<rect x="1" y="8" width="1" height="1" fill="#14e3e3" />
<rect x="2" y="8" width="1" height="1" fill="#a0efe6" />
<rect x="3" y="8" width="1" height="1" fill="#08f0e9" />
<rect x="4" y="8" width="1" height="1" fill="#00d6f3" />
<rect x="5" y="8" width="1" height="1" fill="#00d6f3" />
<rect x="6" y="8" width="1" height="1" fill="#3791c9" />
<rect x="7" y="8" width="1" height="1" fill="#a0ace7" />
<rect x="8" y="8" width="1" height="1" fill="#776ecb" />
<rect x="2" y="9" width="1" height="1" fill="#00bdcb" />
<rect x="3" y="9" width="1" height="1" fill="#00a5cd" />
<rect x="4" y="9" width="1" height="1" fill="#00a3c9" />
<rect x="5" y="9" width="1" height="1" fill="#00a3c9" />
<rect x="6" y="9" width="1" height="1" fill="#4992cd" />
<rect x="7" y="9" width="1" height="1" fill="#794da8" />
</svg>