<svg xmlns="http://www.w3.org/2000/svg" width="10" height="10" shape-rendering="crispEdges">
<rect x="1" y="0" width="1" height="1" fill="#000914" />
<rect x="2" y="0" width="1" height="1" fill="#2a4a55" />
<rect x="3" y="0" width="1" height="1" fill="#2a4a55" />
<rect x="4" y="0" width="1" height="1" fill="#2a4a55" />
<rect x="5" y="0" width="1" height="1" fill="#f3fffd" />
<rect x="6" y="0" width="1" height="1" fill="#f3fffd" />
<rect x="7" y="0" width="1" height="1" fill="#f3fffd" />
<rect x="8" y="0" width="1" height="1" fill="#f3fffd" />
<rect x="9" y="0" width="1" height="1" fill="#2a4a55" />
<rect x="0" y="1" width="1" height="1" fill="#2a4a55" />
<rect x="1" y="1" width="1" height="1" fill="#f3fffd" />
<rect x="2" y="1" width="1" height="1" fill="#f3fffd" />
<rect x="3" y="1" width="1" height="1" fill="#f3fffd" />
<rect x="4" y="1" width="1" height="1" fill="#f3fffd" />
<rect x="5" y="1" width="1" height="1" fill="#000914" />
<rect x="6" y="1" width="1" height="1" fill="#006d7f" />
<rect x="7" y="1" width="1" height="1" fill="#006d7f" />
<rect x="8" y="1" width="1" height="1" fill="#00cca3" />
<rect x="9" y="1" width="1" height="1" fill="#2a4a55" />
<rect x="0" y="2" width="1" height="1" fill="#000914" />
<rect x="1" y="2" width="1" height="1" fill="#00cca3" />
<rect x="2" y="2" width="1" height="1" fill="#006d7f" />
<rect x="3" y="2" width="1" height="1" fill="#006d7f" />
<rect x="4" y="2" width="1" height="1" fill="#000914" />
<rect x="5" y="2" width="1" height="1" fill="#2a4a55" />
<rect x="6" y="2" width="1" height="1" fill="#2a4a55" />
<rect x="7" y="2" width="1" height="1" fill="#006d7f" />
<rect x="8" y="2" width="1" height="1" fill="#00cca3" />
<rect x="9" y="2" width="1" height="1" fill="#000914" />
<rect x="0" y="3" width="1" height="1" fill="#000914" />
<rect x="1" y="3" width="1" height="1" fill="#00cca3" />
<rect x="2" y="3" width="1" height="1" fill="#006d7f" />
<rect x="3" y="3" width="1" height="1" fill="#2a4a55" />
<rect x="4" y="3" width="1" height="1" fill="#2a4a55" />
<rect x="5" y="3" width="1" height="1" fill="#f3fffd" />
<rect x="6" y="3" width="1" height="1" fill="#f3fffd" />
<rect x="7" y="3" width="1" height="1" fill="#000914" />
<rect x="8" y="3" width="1" height="1" fill="#000914" />
<rect x="9" y="3" width="1" height="1" fill="#580050" />
<rect x="0" y="4" width="1" height="1" fill="#000914" />
<rect x="1" y="4" width="1" height="1" fill="#f3fffd" />
<rect x="2" y="4" width="1" height="1" fill="#f3fffd" />
<rect x="3" y="4" width="1" height="1" fill="#f3fffd" />
<rect x="4" y="4" width="1" height="1" fill="#000914" />
<rect x="5" y="4" width="1" height="1" fill="#000914" />
<rect x="6" y="4" width="1" height="1" fill="#000914" />
<rect x="7" y="4" width="1" height="1" fill="#b8d7fe" />
<rect x="8" y="4" width="1" height="1" fill="#628dc0" />
<rect x="9" y="4" width="1" height="1" fill="#580050" />
<rect x="0" y="5" width="1" height="1" fill="#210038" />
<rect x="1" y="5" width="1" height="1" fill="#000914" />
<rect x="2" y="5" width="1" height="1" fill="#000914" />
<rect x="3" y="5" width="1" height="1" fill="#000914" />
<rect x="4" y="5" width="1" height="1" fill="#b8d7fe" />
<rect x="5" y="5" width="1" height="1" fill="#b8d7fe" />
<rect x="6" y="5" width="1" height="1" fill="#b8d7fe" />
<rect x="7" y="5" width="1" height="1" fill="#210038" />
<rect x="8" y="5" width="1" height="1" fill="#580050" />
<rect x="9" y="5" width="1" height="1" fill="#210038" />
<rect x="0" y="6" width="1" height="1" fill="#210038" />
<rect x="1" y="6" width="1" height="1" fill="#628dc0" />
<rect x="2" y="6" width="1" height="1" fill="#b8d7fe" />
<rect x="3" y="6" width="1" height="1" fill="#b8d7fe" />
<rect x="4" y="6" width="1" height="1" fill="#210038" />
<rect x="5" y="6" width="1" height="1" fill="#580050" />
<rect x="6" y="6" width="1" height="1" fill="#580050" />
<rect x="7" y="6" width="1" height="1" fill="#210038" />
<rect x="8" y="6" width="1" height="1" fill="#210038" />
<rect x="9" y="6" width="1" height="1" fill="#000008" />
<rect x="0" y="7" width="1" height="1" fill="#210038" />
<rect x="1" y="7" width="1" height="1" fill="#210038" />
<rect x="2" y="7" width="1" height="1" fill="#580050" />
<rect x="3" y="7" width="1" height="1" fill="#580050" />
<rect x="4" y="7" width="1" height="1" fill="#210038" />
<rect x="5" y="7" width="1" height="1" fill="#210038" />
<rect x="6" y="7" width="1" height="1" fill="#210038" />
<rect x="1" y="8" width="1" height="1" fill="#000008" />
<rect x="2" y="8" width="1" height="1" fill="#580050" />
<rect x="3" y="8" width="1" height="1" fill="#210038" />
<rect x="1" y="9" width="1" height="1" fill="#000008" />
<rect x="2" y="9" width="1" height="1" fill="#580050" />
<rect x="3" y="9" width="1" height="1" fill="#210038" />
</svg>