<svg xmlns="http://www.w3.org/2000/svg" width="10" height="10" shape-rendering="crispEdges">
<rect x="5" y="0" width="1" height="1" fill="#00e674" />
<rect x="6" y="0" width="1" height="1" fill="#00fdbd" />
<rect x="7" y="0" width="1" height="1" fill="#00e674" />
<rect x="4" y="1" width="1" height="1" fill="#00e573" />
<rect x="5" y="1" width="1" height="1" fill="#00fcbc" />
<rect x="6" y="1" width="1" height="1" fill="#d1f4db" />
<rect x="7" y="1" width="1" height="1" fill="#00fcbc" />
<rect x="8" y="1" width="1" height="1" fill="#00e573" />
<rect x="4" y="2" width="1" height="1" fill="#00e674" />
<rect x="5" y="2" width="1" height="1" fill="#00fcbc" />
<rect x="6" y="2" width="1" height="1" fill="#d1f5db" />
<rect x="7" y="2" width="1" height="1" fill="#00fcbc" />
<rect x="8" y="2" width="1" height="1" fill="#00b945" />
<rect x="4" y="3" width="1" height="1" fill="#ff807c" />
<rect x="5" y="3" width="1" height="1" fill="#ffc4b9" />
<rect x="6" y="3" width="1" height="1" fill="#fff7e2" />
<rect x="7" y="3" width="1" height="1" fill="#ffc4b9" />
<rect x="8" y="3" width="1" height="1" fill="#ff807d" />
<rect x="4" y="4" width="1" height="1" fill="#00abea" />
<rect x="5" y="4" width="1" height="1" fill="#00d7ec" />
<rect x="6" y="4" width="1" height="1" fill="#00aceb" />
<rect x="7" y="4" width="1" height="1" fill="#00d7ec" />
<rect x="8" y="4" width="1" height="1" fill="#007fd3" />
<rect x="4" y="5" width="1" height="1" fill="#007fd3" />
<rect x="5" y="5" width="1" height="1" fill="#00d7ec" />
<rect x="6" y="5" width="1" height="1" fill="#00abea" />
<rect x="7" y="5" width="1" height="1" fill="#00d7ed" />
<rect x="8" y="5" width="1" height="1" fill="#007fd3" />
<rect x="5" y="6" width="1" height="1" fill="#007fd3" />
<rect x="6" y="6" width="1" height="1" fill="#007fd3" />
<rect x="7" y="6" width="1" height="1" fill="#007fd3" />
<rect x="6" y="7" width="1" height="1" fill="#f4851f" />
<rect x="6" y="8" width="1" height="1" fill="#df7b1b" />
<rect x="6" y="9" width="1" height="1" fill="#a85a11" />
</svg>