<svg xmlns="http://www.w3.org/2000/svg" width="10" height="10" shape-rendering="crispEdges">
<rect x="2" y="0" width="1" height="1" fill="#ac9089" />
<rect x="3" y="0" width="1" height="1" fill="#ad9089" />
<rect x="4" y="0" width="1" height="1" fill="#ac8f88" />
<rect x="5" y="0" width="1" height="1" fill="#ac9089" />
<rect x="6" y="0" width="1" height="1" fill="#ac8f89" />
<rect x="7" y="0" width="1" height="1" fill="#ac8f89" />
<rect x="2" y="1" width="1" height="1" fill="#ac8f89" />
<rect x="3" y="1" width="1" height="1" fill="#ebe0d8" />
<rect x="4" y="1" width="1" height="1" fill="#ffffff" />
<rect x="5" y="1" width="1" height="1" fill="#ffffff" />
<rect x="6" y="1" width="1" height="1" fill="#cbbbb3" />
<rect x="7" y="1" width="1" height="1" fill="#ac9089" />
<rect x="1" y="2" width="1" height="1" fill="#ac8f89" />
<rect x="2" y="2" width="1" height="1" fill="#ffffff" />
<rect x="3" y="2" width="1" height="1" fill="#ffffff" />
<rect x="4" y="2" width="1" height="1" fill="#ffffff" />
<rect x="5" y="2" width="1" height="1" fill="#cbbbb4" />
<rect x="6" y="2" width="1" height="1" fill="#ffffff" />
<rect x="7" y="2" width="1" height="1" fill="#eadfd7" />
<rect x="8" y="2" width="1" height="1" fill="#ac8f89" />
<rect x="1" y="3" width="1" height="1" fill="#ac9089" />
<rect x="2" y="3" width="1" height="1" fill="#eadfd7" />
<rect x="3" y="3" width="1" height="1" fill="#ffffff" />
<rect x="4" y="3" width="1" height="1" fill="#ebe0d8" />
<rect x="5" y="3" width="1" height="1" fill="#ebe0d8" />
<rect x="6" y="3" width="1" height="1" fill="#ebe0d8" />
<rect x="7" y="3" width="1" height="1" fill="#cbbab3" />
<rect x="8" y="3" width="1" height="1" fill="#ac9089" />
<rect x="1" y="4" width="1" height="1" fill="#ac9089" />
<rect x="2" y="4" width="1" height="1" fill="#ac8f89" />
<rect x="3" y="4" width="1" height="1" fill="#ebe0d8" />
<rect x="4" y="4" width="1" height="1" fill="#cbbab3" />
<rect x="5" y="4" width="1" height="1" fill="#ebe0d8" />
<rect x="6" y="4" width="1" height="1" fill="#cbbbb3" />
<rect x="7" y="4" width="1" height="1" fill="#ac8f89" />
<rect x="8" y="4" width="1" height="1" fill="#ac8f88" />
<rect x="1" y="5" width="1" height="1" fill="#e07b1c" />
<rect x="2" y="5" width="1" height="1" fill="#ffd562" />
<rect x="3" y="5" width="1" height="1" fill="#ac8f89" />
<rect x="4" y="5" width="1" height="1" fill="#ac8f89" />
<rect x="5" y="5" width="1" height="1" fill="#ac8f89" />
<rect x="6" y="5" width="1" height="1" fill="#ac8f89" />
<rect x="7" y="5" width="1" height="1" fill="#efb03f" />
<rect x="8" y="5" width="1" height="1" fill="#df7a1b" />
<rect x="2" y="6" width="1" height="1" fill="#e07b1c" />
<rect x="3" y="6" width="1" height="1" fill="#ffd562" />
<rect x="4" y="6" width="1" height="1" fill="#f0b13f" />
<rect x="5" y="6" width="1" height="1" fill="#f0b13f" />
<rect x="6" y="6" width="1" height="1" fill="#efb03f" />
<rect x="7" y="6" width="1" height="1" fill="#df7b1b" />
<rect x="2" y="7" width="1" height="1" fill="#df7b1b" />
<rect x="3" y="7" width="1" height="1" fill="#ffd563" />
<rect x="4" y="7" width="1" height="1" fill="#ffd562" />
<rect x="5" y="7" width="1" height="1" fill="#ffd562" />
<rect x="6" y="7" width="1" height="1" fill="#f0b13f" />
<rect x="7" y="7" width="1" height="1" fill="#e07b1c" />
<rect x="2" y="8" width="1" height="1" fill="#df7b1b" />
<rect x="3" y="8" width="1" height="1" fill="#efb03f" />
<rect x="4" y="8" width="1" height="1" fill="#ffd562" />
<rect x="5" y="8" width="1" height="1" fill="#efb03f" />
<rect x="6" y="8" width="1" height="1" fill="#efb03f" />
<rect x="7" y="8" width="1" height="1" fill="#df7b1b" />
<rect x="3" y="9" width="1" height="1" fill="#e07b1c" />
<rect x="4" y="9" width="1" height="1" fill="#e07b1c" />
<rect x="5" y="9" width="1" height="1" fill="#e07b1c" />
<rect x="6" y="9" width="1" height="1" fill="#e07b1c" />
</svg>