<svg xmlns="http://www.w3.org/2000/svg" width="10" height="10" shape-rendering="crispEdges">
<rect x="2" y="0" width="1" height="1" fill="#d52e97" />
<rect x="3" y="0" width="1" height="1" fill="#ff50aa" />
<rect x="4" y="0" width="1" height="1" fill="#ff508e" />
<rect x="5" y="0" width="1" height="1" fill="#d52e69" />
<rect x="6" y="0" width="1" height="1" fill="#cd138c" />
<rect x="7" y="0" width="1" height="1" fill="#650359" />
<rect x="1" y="1" width="1" height="1" fill="#ff50aa" />
<rect x="2" y="1" width="1" height="1" fill="#ffeafd" />
<rect x="3" y="1" width="1" height="1" fill="#ff79b3" />
<rect x="4" y="1" width="1" height="1" fill="#ffeaf8" />
<rect x="5" y="1" width="1" height="1" fill="#ffdbdb" />
<rect x="6" y="1" width="1" height="1" fill="#ff8eb7" />
<rect x="7" y="1" width="1" height="1" fill="#ffc5f2" />
<rect x="8" y="1" width="1" height="1" fill="#ff319a" />
<rect x="0" y="2" width="1" height="1" fill="#d52e97" />
<rect x="1" y="2" width="1" height="1" fill="#ffeafd" />
<rect x="2" y="2" width="1" height="1" fill="#ffdbea" />
<rect x="3" y="2" width="1" height="1" fill="#ffb1ce" />
<rect x="4" y="2" width="1" height="1" fill="#ffdbe2" />
<rect x="5" y="2" width="1" height="1" fill="#ffb1b1" />
<rect x="6" y="2" width="1" height="1" fill="#ff569e" />
<rect x="7" y="2" width="1" height="1" fill="#ffb7d2" />
<rect x="8" y="2" width="1" height="1" fill="#ff8eb7" />
<rect x="9" y="2" width="1" height="1" fill="#760359" />
<rect x="0" y="3" width="1" height="1" fill="#d52e97" />
<rect x="1" y="3" width="1" height="1" fill="#ff001d" />
<rect x="2" y="3" width="1" height="1" fill="#ff79b3" />
<rect x="3" y="3" width="1" height="1" fill="#ff001d" />
<rect x="4" y="3" width="1" height="1" fill="#ffb1bf" />
<rect x="5" y="3" width="1" height="1" fill="#ff7981" />
<rect x="6" y="3" width="1" height="1" fill="#ff001d" />
<rect x="7" y="3" width="1" height="1" fill="#ff569e" />
<rect x="8" y="3" width="1" height="1" fill="#ff001d" />
<rect x="9" y="3" width="1" height="1" fill="#cd1378" />
<rect x="0" y="4" width="1" height="1" fill="#ff508e" />
<rect x="1" y="4" width="1" height="1" fill="#ff003b" />
<rect x="2" y="4" width="1" height="1" fill="#ff001d" />
<rect x="3" y="4" width="1" height="1" fill="#c6004c" />
<rect x="4" y="4" width="1" height="1" fill="#ffdbe2" />
<rect x="5" y="4" width="1" height="1" fill="#ff7981" />
<rect x="6" y="4" width="1" height="1" fill="#ff003b" />
<rect x="7" y="4" width="1" height="1" fill="#ff001d" />
<rect x="8" y="4" width="1" height="1" fill="#c6004c" />
<rect x="9" y="4" width="1" height="1" fill="#ff5060" />
<rect x="0" y="5" width="1" height="1" fill="#ff508e" />
<rect x="1" y="5" width="1" height="1" fill="#ff7999" />
<rect x="2" y="5" width="1" height="1" fill="#c6004c" />
<rect x="3" y="5" width="1" height="1" fill="#ff508e" />
<rect x="4" y="5" width="1" height="1" fill="#ff7999" />
<rect x="5" y="5" width="1" height="1" fill="#ffb1b1" />
<rect x="6" y="5" width="1" height="1" fill="#ff7981" />
<rect x="7" y="5" width="1" height="1" fill="#c6004c" />
<rect x="8" y="5" width="1" height="1" fill="#ff8377" />
<rect x="9" y="5" width="1" height="1" fill="#ff5060" />
<rect x="0" y="6" width="1" height="1" fill="#d52e7e" />
<rect x="1" y="6" width="1" height="1" fill="#ff508e" />
<rect x="2" y="6" width="1" height="1" fill="#ff7999" />
<rect x="3" y="6" width="1" height="1" fill="#ff7999" />
<rect x="4" y="6" width="1" height="1" fill="#c6004c" />
<rect x="5" y="6" width="1" height="1" fill="#c6004c" />
<rect x="6" y="6" width="1" height="1" fill="#ff5350" />
<rect x="7" y="6" width="1" height="1" fill="#ff9276" />
<rect x="8" y="6" width="1" height="1" fill="#ff5350" />
<rect x="9" y="6" width="1" height="1" fill="#e22e33" />
<rect x="0" y="7" width="1" height="1" fill="#d52e7e" />
<rect x="1" y="7" width="1" height="1" fill="#ffeaf8" />
<rect x="2" y="7" width="1" height="1" fill="#ffdbe2" />
<rect x="3" y="7" width="1" height="1" fill="#ffb1bf" />
<rect x="4" y="7" width="1" height="1" fill="#c6004c" />
<rect x="5" y="7" width="1" height="1" fill="#c6004c" />
<rect x="6" y="7" width="1" height="1" fill="#ffc4b0" />
<rect x="7" y="7" width="1" height="1" fill="#ffe6db" />
<rect x="8" y="7" width="1" height="1" fill="#ff9276" />
<rect x="9" y="7" width="1" height="1" fill="#80123d" />
<rect x="1" y="8" width="1" height="1" fill="#ff508e" />
<rect x="2" y="8" width="1" height="1" fill="#ffeaf8" />
<rect x="3" y="8" width="1" height="1" fill="#ffb1b1" />
<rect x="4" y="8" width="1" height="1" fill="#ff7981" />
<rect x="5" y="8" width="1" height="1" fill="#ff5076" />
<rect x="6" y="8" width="1" height="1" fill="#ff9276" />
<rect x="7" y="8" width="1" height="1" fill="#ff5350" />
<rect x="8" y="8" width="1" height="1" fill="#e22e33" />
<rect x="2" y="9" width="1" height="1" fill="#d52e7e" />
<rect x="3" y="9" width="1" height="1" fill="#d52e69" />
<rect x="4" y="9" width="1" height="1" fill="#e22e5c" />
<rect x="5" y="9" width="1" height="1" fill="#e22e5c" />
<rect x="6" y="9" width="1" height="1" fill="#e22e33" />
<rect x="7" y="9" width="1" height="1" fill="#80123d" />
</svg>