<svg xmlns="http://www.w3.org/2000/svg" width="10" height="10" shape-rendering="crispEdges">
<rect x="2" y="1" width="1" height="1" fill="#c2642d" />
<rect x="4" y="1" width="1" height="1" fill="#c2642d" />
<rect x="2" y="2" width="1" height="1" fill="#ffd8b5" />
<rect x="3" y="2" width="1" height="1" fill="#e19167" />
<rect x="4" y="2" width="1" height="1" fill="#c2642d" />
<rect x="1" y="3" width="1" height="1" fill="#fbe6dd" />
<rect x="2" y="3" width="1" height="1" fill="#00c3e8" />
<rect x="3" y="3" width="1" height="1" fill="#e19167" />
<rect x="4" y="3" width="1" height="1" fill="#00c3e8" />
<rect x="5" y="3" width="1" height="1" fill="#fbe6dd" />
<rect x="2" y="4" width="1" height="1" fill="#fbe6dd" />
<rect x="3" y="4" width="1" height="1" fill="#ffd8b5" />
<rect x="4" y="4" width="1" height="1" fill="#fbe6dd" />
<rect x="1" y="5" width="1" height="1" fill="#fbe6dd" />
<rect x="2" y="5" width="1" height="1" fill="#176375" />
<rect x="3" y="5" width="1" height="1" fill="#fffcf6" />
<rect x="4" y="5" width="1" height="1" fill="#176375" />
<rect x="5" y="5" width="1" height="1" fill="#fbe6dd" />
<rect x="2" y="6" width="1" height="1" fill="#e19167" />
<rect x="3" y="6" width="1" height="1" fill="#ffe200" />
<rect x="4" y="6" width="1" height="1" fill="#ffd8b5" />
<rect x="7" y="6" width="1" height="1" fill="#fffcf6" />
<rect x="2" y="7" width="1" height="1" fill="#e19167" />
<rect x="3" y="7" width="1" height="1" fill="#fbe6dd" />
<rect x="4" y="7" width="1" height="1" fill="#e19167" />
<rect x="8" y="7" width="1" height="1" fill="#ffd8b5" />
<rect x="1" y="8" width="1" height="1" fill="#e19167" />
<rect x="2" y="8" width="1" height="1" fill="#c2642d" />
<rect x="3" y="8" width="1" height="1" fill="#fbe6dd" />
<rect x="4" y="8" width="1" height="1" fill="#c2642d" />
<rect x="5" y="8" width="1" height="1" fill="#e19167" />
<rect x="8" y="8" width="1" height="1" fill="#8f4c24" />
<rect x="1" y="9" width="1" height="1" fill="#e19167" />
<rect x="2" y="9" width="1" height="1" fill="#8f4c24" />
<rect x="3" y="9" width="1" height="1" fill="#fffcf6" />
<rect x="4" y="9" width="1" height="1" fill="#8f4c24" />
<rect x="5" y="9" width="1" height="1" fill="#e19167" />
<rect x="6" y="9" width="1" height="1" fill="#c2642d" />
<rect x="7" y="9" width="1" height="1" fill="#8f4c24" />
</svg>