<svg xmlns="http://www.w3.org/2000/svg" width="10" height="10" shape-rendering="crispEdges">
<rect x="2" y="0" width="1" height="1" fill="#787720" />
<rect x="3" y="0" width="1" height="1" fill="#bf841b" />
<rect x="6" y="0" width="1" height="1" fill="#787720" />
<rect x="7" y="0" width="1" height="1" fill="#bf841b" />
<rect x="0" y="1" width="1" height="1" fill="#787720" />
<rect x="1" y="1" width="1" height="1" fill="#bf841b" />
<rect x="2" y="1" width="1" height="1" fill="#bf841b" />
<rect x="3" y="1" width="1" height="1" fill="#d8951a" />
<rect x="4" y="1" width="1" height="1" fill="#fba70c" />
<rect x="5" y="1" width="1" height="1" fill="#fba70c" />
<rect x="6" y="1" width="1" height="1" fill="#d8951a" />
<rect x="7" y="1" width="1" height="1" fill="#bf841b" />
<rect x="8" y="1" width="1" height="1" fill="#bf841b" />
<rect x="9" y="1" width="1" height="1" fill="#bf841b" />
<rect x="1" y="2" width="1" height="1" fill="#b67826" />
<rect x="2" y="2" width="1" height="1" fill="#bf841b" />
<rect x="3" y="2" width="1" height="1" fill="#bf841b" />
<rect x="4" y="2" width="1" height="1" fill="#d8951a" />
<rect x="5" y="2" width="1" height="1" fill="#d8951a" />
<rect x="6" y="2" width="1" height="1" fill="#bf841b" />
<rect x="7" y="2" width="1" height="1" fill="#bf841b" />
<rect x="8" y="2" width="1" height="1" fill="#b67826" />
<rect x="0" y="3" width="1" height="1" fill="#bf841b" />
<rect x="1" y="3" width="1" height="1" fill="#b67826" />
<rect x="2" y="3" width="1" height="1" fill="#1d2c26" />
<rect x="3" y="3" width="1" height="1" fill="#fafafa" />
<rect x="4" y="3" width="1" height="1" fill="#b67826" />
<rect x="5" y="3" width="1" height="1" fill="#b67826" />
<rect x="6" y="3" width="1" height="1" fill="#fafafa" />
<rect x="7" y="3" width="1" height="1" fill="#1d2c26" />
<rect x="8" y="3" width="1" height="1" fill="#b67826" />
<rect x="9" y="3" width="1" height="1" fill="#787720" />
<rect x="0" y="4" width="1" height="1" fill="#787720" />
<rect x="1" y="4" width="1" height="1" fill="#b67826" />
<rect x="2" y="4" width="1" height="1" fill="#b67826" />
<rect x="3" y="4" width="1" height="1" fill="#bf841b" />
<rect x="4" y="4" width="1" height="1" fill="#fce5bc" />
<rect x="5" y="4" width="1" height="1" fill="#fce5bc" />
<rect x="6" y="4" width="1" height="1" fill="#bf841b" />
<rect x="7" y="4" width="1" height="1" fill="#b67826" />
<rect x="8" y="4" width="1" height="1" fill="#b67826" />
<rect x="9" y="4" width="1" height="1" fill="#bf841b" />
<rect x="1" y="5" width="1" height="1" fill="#d2a44d" />
<rect x="2" y="5" width="1" height="1" fill="#bf841b" />
<rect x="3" y="5" width="1" height="1" fill="#fce5bc" />
<rect x="4" y="5" width="1" height="1" fill="#5d471f" />
<rect x="5" y="5" width="1" height="1" fill="#5d471f" />
<rect x="6" y="5" width="1" height="1" fill="#d2a44d" />
<rect x="7" y="5" width="1" height="1" fill="#bf841b" />
<rect x="8" y="5" width="1" height="1" fill="#d2a44d" />
<rect x="0" y="6" width="1" height="1" fill="#eecf9b" />
<rect x="1" y="6" width="1" height="1" fill="#fce5bc" />
<rect x="2" y="6" width="1" height="1" fill="#fce5bc" />
<rect x="3" y="6" width="1" height="1" fill="#eecf9b" />
<rect x="4" y="6" width="1" height="1" fill="#d2a44d" />
<rect x="5" y="6" width="1" height="1" fill="#d2a44d" />
<rect x="6" y="6" width="1" height="1" fill="#eecf9b" />
<rect x="7" y="6" width="1" height="1" fill="#fce5bc" />
<rect x="8" y="6" width="1" height="1" fill="#fce5bc" />
<rect x="9" y="6" width="1" height="1" fill="#eecf9b" />
<rect x="0" y="7" width="1" height="1" fill="#fce5bc" />
<rect x="1" y="7" width="1" height="1" fill="#fce5bc" />
<rect x="2" y="7" width="1" height="1" fill="#fce5bc" />
<rect x="3" y="7" width="1" height="1" fill="#fce5bc" />
<rect x="4" y="7" width="1" height="1" fill="#fce5bc" />
<rect x="5" y="7" width="1" height="1" fill="#fce5bc" />
<rect x="6" y="7" width="1" height="1" fill="#fce5bc" />
<rect x="7" y="7" width="1" height="1" fill="#fce5bc" />
<rect x="8" y="7" width="1" height="1" fill="#fce5bc" />
<rect x="9" y="7" width="1" height="1" fill="#fce5bc" />
<rect x="1" y="8" width="1" height="1" fill="#d2a44d" />
<rect x="2" y="8" width="1" height="1" fill="#fce5bc" />
<rect x="3" y="8" width="1" height="1" fill="#eecf9b" />
<rect x="4" y="8" width="1" height="1" fill="#fce5bc" />
<rect x="5" y="8" width="1" height="1" fill="#d2a44d" />
<rect x="6" y="8" width="1" height="1" fill="#fce5bc" />
<rect x="7" y="8" width="1" height="1" fill="#eecf9b" />
<rect x="8" y="8" width="1" height="1" fill="#fce5bc" />
<rect x="2" y="9" width="1" height="1" fill="#eecf9b" />
<rect x="3" y="9" width="1" height="1" fill="#fce5bc" />
<rect x="6" y="9" width="1" height="1" fill="#eecf9b" />
<rect x="7" y="9" width="1" height="1" fill="#fce5bc" />
</svg>