<svg xmlns="http://www.w3.org/2000/svg" width="10" height="10" shape-rendering="crispEdges">
<rect x="3" y="0" width="1" height="1" fill="#f3d99b" />
<rect x="6" y="0" width="1" height="1" fill="#f3d99b" />
<rect x="1" y="1" width="1" height="1" fill="#f3d99b" />
<rect x="8" y="1" width="1" height="1" fill="#f3d99b" />
<rect x="0" y="3" width="1" height="1" fill="#f3d99b" />
<rect x="3" y="3" width="1" height="1" fill="#734c2e" />
<rect x="6" y="3" width="1" height="1" fill="#734c2e" />
<rect x="9" y="3" width="1" height="1" fill="#f3d99b" />
<rect x="3" y="4" width="1" height="1" fill="#5f301e" />
<rect x="6" y="4" width="1" height="1" fill="#5f301e" />
<rect x="0" y="6" width="1" height="1" fill="#f3d99b" />
<rect x="2" y="6" width="1" height="1" fill="#5f301e" />
<rect x="3" y="6" width="1" height="1" fill="#734c2e" />
<rect x="4" y="6" width="1" height="1" fill="#734c2e" />
<rect x="5" y="6" width="1" height="1" fill="#734c2e" />
<rect x="6" y="6" width="1" height="1" fill="#734c2e" />
<rect x="7" y="6" width="1" height="1" fill="#5f301e" />
<rect x="9" y="6" width="1" height="1" fill="#f3d99b" />
<rect x="1" y="8" width="1" height="1" fill="#f3d99b" />
<rect x="8" y="8" width="1" height="1" fill="#f3d99b" />
<rect x="3" y="9" width="1" height="1" fill="#f3d99b" />
<rect x="6" y="9" width="1" height="1" fill="#f3d99b" />
</svg>