<svg xmlns="http://www.w3.org/2000/svg" width="10" height="10" shape-rendering="crispEdges">
<rect x="1" y="0" width="1" height="1" fill="#611700" />
<rect x="2" y="0" width="1" height="1" fill="#611700" />
<rect x="3" y="0" width="1" height="1" fill="#611700" />
<rect x="4" y="0" width="1" height="1" fill="#611700" />
<rect x="5" y="0" width="1" height="1" fill="#611700" />
<rect x="6" y="0" width="1" height="1" fill="#611700" />
<rect x="7" y="0" width="1" height="1" fill="#611700" />
<rect x="8" y="0" width="1" height="1" fill="#611700" />
<rect x="0" y="1" width="1" height="1" fill="#611700" />
<rect x="1" y="1" width="1" height="1" fill="#611700" />
<rect x="2" y="1" width="1" height="1" fill="#852800" />
<rect x="3" y="1" width="1" height="1" fill="#f26535" />
<rect x="4" y="1" width="1" height="1" fill="#ff7d53" />
<rect x="5" y="1" width="1" height="1" fill="#ff7e54" />
<rect x="6" y="1" width="1" height="1" fill="#f26535" />
<rect x="7" y="1" width="1" height="1" fill="#872900" />
<rect x="8" y="1" width="1" height="1" fill="#611700" />
<rect x="9" y="1" width="1" height="1" fill="#611700" />
<rect x="0" y="2" width="1" height="1" fill="#611700" />
<rect x="1" y="2" width="1" height="1" fill="#ff7b51" />
<rect x="2" y="2" width="1" height="1" fill="#ff9a76" />
<rect x="3" y="2" width="1" height="1" fill="#ff9a76" />
<rect x="4" y="2" width="1" height="1" fill="#ff9975" />
<rect x="5" y="2" width="1" height="1" fill="#ff9a75" />
<rect x="6" y="2" width="1" height="1" fill="#ff9a73" />
<rect x="7" y="2" width="1" height="1" fill="#ff9c77" />
<rect x="8" y="2" width="1" height="1" fill="#bf470f" />
<rect x="9" y="2" width="1" height="1" fill="#611700" />
<rect x="0" y="3" width="1" height="1" fill="#611700" />
<rect x="1" y="3" width="1" height="1" fill="#ff855f" />
<rect x="2" y="3" width="1" height="1" fill="#ff855f" />
<rect x="3" y="3" width="1" height="1" fill="#ff855f" />
<rect x="4" y="3" width="1" height="1" fill="#ff855f" />
<rect x="5" y="3" width="1" height="1" fill="#ff855f" />
<rect x="6" y="3" width="1" height="1" fill="#ff855f" />
<rect x="7" y="3" width="1" height="1" fill="#ff855f" />
<rect x="8" y="3" width="1" height="1" fill="#ff855f" />
<rect x="9" y="3" width="1" height="1" fill="#611700" />
<rect x="0" y="4" width="1" height="1" fill="#611700" />
<rect x="1" y="4" width="1" height="1" fill="#eddcef" />
<rect x="2" y="4" width="1" height="1" fill="#a041ba" />
<rect x="3" y="4" width="1" height="1" fill="#a041ba" />
<rect x="4" y="4" width="1" height="1" fill="#ff7a50" />
<rect x="5" y="4" width="1" height="1" fill="#ff764c" />
<rect x="6" y="4" width="1" height="1" fill="#eddcef" />
<rect x="7" y="4" width="1" height="1" fill="#a03eb1" />
<rect x="8" y="4" width="1" height="1" fill="#a041ba" />
<rect x="9" y="4" width="1" height="1" fill="#611700" />
<rect x="0" y="5" width="1" height="1" fill="#611700" />
<rect x="1" y="5" width="1" height="1" fill="#fffbf7" />
<rect x="2" y="5" width="1" height="1" fill="#fffdfe" />
<rect x="3" y="5" width="1" height="1" fill="#fffefd" />
<rect x="4" y="5" width="1" height="1" fill="#ff784f" />
<rect x="5" y="5" width="1" height="1" fill="#ff744c" />
<rect x="6" y="5" width="1" height="1" fill="#fbfffe" />
<rect x="7" y="5" width="1" height="1" fill="#fffdfa" />
<rect x="8" y="5" width="1" height="1" fill="#fffdfe" />
<rect x="9" y="5" width="1" height="1" fill="#611700" />
<rect x="0" y="6" width="1" height="1" fill="#611700" />
<rect x="1" y="6" width="1" height="1" fill="#ffb197" />
<rect x="2" y="6" width="1" height="1" fill="#c45241" />
<rect x="3" y="6" width="1" height="1" fill="#ff886d" />
<rect x="4" y="6" width="1" height="1" fill="#ff886d" />
<rect x="5" y="6" width="1" height="1" fill="#ff886d" />
<rect x="6" y="6" width="1" height="1" fill="#ff886d" />
<rect x="7" y="6" width="1" height="1" fill="#ff886d" />
<rect x="8" y="6" width="1" height="1" fill="#ffb197" />
<rect x="9" y="6" width="1" height="1" fill="#611700" />
<rect x="0" y="7" width="1" height="1" fill="#611700" />
<rect x="1" y="7" width="1" height="1" fill="#ffb197" />
<rect x="2" y="7" width="1" height="1" fill="#ffb197" />
<rect x="3" y="7" width="1" height="1" fill="#c45241" />
<rect x="4" y="7" width="1" height="1" fill="#c45241" />
<rect x="5" y="7" width="1" height="1" fill="#c45241" />
<rect x="6" y="7" width="1" height="1" fill="#c45241" />
<rect x="7" y="7" width="1" height="1" fill="#ffb197" />
<rect x="8" y="7" width="1" height="1" fill="#ffb197" />
<rect x="9" y="7" width="1" height="1" fill="#611700" />
<rect x="0" y="8" width="1" height="1" fill="#611700" />
<rect x="1" y="8" width="1" height="1" fill="#ffb398" />
<rect x="2" y="8" width="1" height="1" fill="#ffb197" />
<rect x="3" y="8" width="1" height="1" fill="#ffb197" />
<rect x="4" y="8" width="1" height="1" fill="#ffb197" />
<rect x="5" y="8" width="1" height="1" fill="#ffb197" />
<rect x="6" y="8" width="1" height="1" fill="#ffb197" />
<rect x="7" y="8" width="1" height="1" fill="#ffb197" />
<rect x="8" y="8" width="1" height="1" fill="#ffb197" />
<rect x="9" y="8" width="1" height="1" fill="#611700" />
<rect x="1" y="9" width="1" height="1" fill="#611700" />
<rect x="2" y="9" width="1" height="1" fill="#611700" />
<rect x="3" y="9" width="1" height="1" fill="#611700" />
<rect x="4" y="9" width="1" height="1" fill="#611700" />
<rect x="5" y="9" width="1" height="1" fill="#611700" />
<rect x="6" y="9" width="1" height="1" fill="#611700" />
<rect x="7" y="9" width="1" height="1" fill="#611700" />
<rect x="8" y="9" width="1" height="1" fill="#611700" />
</svg>